<?xml version="1.0" encoding="UTF-8"?> <svg xmlns="http://www.w3.org/2000/svg" xmlns:xlink="http://www.w3.org/1999/xlink" width="784" height="490" viewBox="0 0 784 490"><defs><style>.a{fill:#f6f6f6;}.b,.c,.i,.j,.k,.l,.o,.p{fill:none;}.b,.i,.j,.p,.q{stroke:#f0944e;}.b,.c{stroke-miterlimit:10;stroke-width:8px;}.c,.k,.l,.o{stroke:#e95eac;}.d{fill:#183b5c;}.e{filter:url(#a);}.f{fill:#9b60e9;}.g{fill:#23c3b3;}.h{fill:#59d146;}.i,.j,.k,.l,.o,.p,.q{stroke-linecap:round;stroke-linejoin:round;}.i,.j,.k,.l,.q{stroke-width:4px;}.j,.l{stroke-dasharray:11.7675 11.7675;}.m{fill:#f0944e;}.n,.q{fill:#e95eac;}.o,.p{stroke-width:3.9954px;}.r{fill:#25a7d9;fill-rule:evenodd;}</style><filter id="a" width="200%" height="200%" name="Shadow"><feOffset result="shadowOffset" dy="2" in="SourceAlpha"></feOffset><feColorMatrix result="matrixOut" values="0 0 0 0 0 0 0 0 0 0 0 0 0 0 0 0 0 0 0.2 0" in="shadowOffset"></feColorMatrix><feGaussianBlur result="blurOut" stdDeviation="3" in="matrixOut"></feGaussianBlur><feMerge><feMergeNode in="blurOut"></feMergeNode><feMergeNode in="SourceGraphic"></feMergeNode></feMerge></filter></defs><path class="a" d="M589.6569,416.3431,706.3431,299.6569a8,8,0,0,0,0-11.3138L589.6569,171.6569A8,8,0,0,0,576,177.3137V410.6863A8,8,0,0,0,589.6569,416.3431Z"></path><path class="a" d="M538.3431,416.3431,421.6569,299.6569a8,8,0,0,1,0-11.3138L538.3431,171.6569A8,8,0,0,1,552,177.3137V410.6863A8,8,0,0,1,538.3431,416.3431Z"></path><path class="a" d="M245.6569,416.3431,362.3431,299.6569a8,8,0,0,0,0-11.3138L245.6569,171.6569A8,8,0,0,0,232,177.3137V410.6863A8,8,0,0,0,245.6569,416.3431Z"></path><path class="a" d="M194.3431,416.3431,77.6569,299.6569a8,8,0,0,1,0-11.3138L194.3431,171.6569A8,8,0,0,1,208,177.3137V410.6863A8,8,0,0,1,194.3431,416.3431Z"></path><rect class="b" x="98.3776" y="172.3776" width="243.2447" height="243.2447" rx="8" transform="translate(272.3259 -69.4529) rotate(45)"></rect><rect class="c" x="442.3776" y="172.3776" width="243.2447" height="243.2447" rx="8" transform="translate(373.0812 -312.6976) rotate(45)"></rect><path class="d" d="M120.98,298.2168V288.2031h2.8984a8.4352,8.4352,0,0,1,2.3516.3008,5.025,5.025,0,0,1,1.7876.9053,3.9036,3.9036,0,0,1,1.1484,1.5586,5.6607,5.6607,0,0,1,.4,2.2041,4.7541,4.7541,0,0,1-1.4629,3.7363,5.8619,5.8619,0,0,1-4.0537,1.3086Zm1.8525-1.4824h1.3262a3.1474,3.1474,0,0,0,3.5068-3.5215,3.46,3.46,0,0,0-.9228-2.6826,4.0285,4.0285,0,0,0-2.7822-.8369h-1.128Z"></path><path class="d" d="M131.1924,289.6113V288.08H132.99v1.5312Zm0,8.6055v-7.5117h1.791v7.5117Z"></path><path class="d" d="M137.249,298.3535a5.375,5.375,0,0,1-2.6592-.5664l.1846-1.3476a5.54,5.54,0,0,0,1.1485.4414,4.7664,4.7664,0,0,0,1.2714.1953,1.6491,1.6491,0,0,0,.9263-.2227.75.75,0,0,0,.3384-.6523.7193.7193,0,0,0-.3111-.6153,5.7629,5.7629,0,0,0-1.186-.56c-.2007-.0733-.3306-.1211-.39-.1445a4.01,4.01,0,0,1-1.4971-.8985,1.9025,1.9025,0,0,1-.458-1.3437,1.8352,1.8352,0,0,1,.7417-1.5723,3.4284,3.4284,0,0,1,2.0679-.5469,5.5965,5.5965,0,0,1,2.5224.541l-.4443,1.2364a4.8586,4.8586,0,0,0-2.044-.4981,1.6608,1.6608,0,0,0-.8442.1807.5969.5969,0,0,0-.3042.55.6178.6178,0,0,0,.2939.5439,6.3291,6.3291,0,0,0,1.1485.5088c.018.0049.0776.0254.1777.0625s.1778.0655.2324.0879a3.85,3.85,0,0,1,1.5176.8994,1.9256,1.9256,0,0,1,.4854,1.3643,2.1318,2.1318,0,0,1-.7657,1.7422A3.3386,3.3386,0,0,1,137.249,298.3535Z"></path><path class="d" d="M144.8711,298.3613a3.4964,3.4964,0,0,1-2.6831-1.0254,4.134,4.134,0,0,1-.96-2.9336,3.8924,3.8924,0,0,1,1.0083-2.8632,3.57,3.57,0,0,1,2.6558-1.02,4.1249,4.1249,0,0,1,2.2285.5684l-.4238,1.2773a3.77,3.77,0,0,0-1.73-.4843,1.74,1.74,0,0,0-1.4321.6484,2.9648,2.9648,0,0,0-.523,1.8945,3.0468,3.0468,0,0,0,.5161,1.9141,1.75,1.75,0,0,0,1.4595.6562,3.4648,3.4648,0,0,0,1.8936-.582l.1709,1.3613a3.3515,3.3515,0,0,1-.9776.4512A4.6676,4.6676,0,0,1,144.8711,298.3613Z"></path><path class="d" d="M151.6455,298.3613a3.3286,3.3286,0,0,1-2.625-1.08,4.74,4.74,0,0,1,0-5.712,3.4677,3.4677,0,0,1,2.7-1.05,3.35,3.35,0,0,1,2.6353,1.07,4.7274,4.7274,0,0,1-.01,5.7081A3.4616,3.4616,0,0,1,151.6455,298.3613ZM151.6934,297a1.5528,1.5528,0,0,0,1.3671-.6621,4.1871,4.1871,0,0,0,0-3.8086,1.7667,1.7667,0,0,0-2.7514.0039,3.316,3.316,0,0,0-.4614,1.91,3.2762,3.2762,0,0,0,.4648,1.8945A1.5774,1.5774,0,0,0,151.6934,297Z"></path><path class="d" d="M158.7686,298.2168l-2.9942-7.5117h1.9q.1092.3076.6939,1.91t.7758,2.1836q.39,1.1353.5606,1.7168,0-.0074.1162-.4453c.0776-.291.1514-.5664.2222-.8232s.1152-.4131.1333-.4678q.0066-.0147.6254-1.8867.6189-1.8735.7349-2.1875h1.8867l-2.8437,7.5117Z"></path><path class="d" d="M167.7783,298.3613a3.74,3.74,0,0,1-2.82-1.0429,3.97,3.97,0,0,1-1.0083-2.8809,4.1152,4.1152,0,0,1,.95-2.8516,3.3262,3.3262,0,0,1,2.5908-1.0664,3.0491,3.0491,0,0,1,2.41.9707,3.7528,3.7528,0,0,1,.8579,2.5782q0,.1157-.0034.375c-.0025.1738-.0034.3007-.0034.3828h-4.9971a2.3635,2.3635,0,0,0,.5776,1.6308,1.9928,1.9928,0,0,0,1.5142.5782,4.7414,4.7414,0,0,0,2.3652-.6426l.2529,1.2715A5.0077,5.0077,0,0,1,167.7783,298.3613Zm-1.9892-4.6621H169.07a2.1189,2.1189,0,0,0-.417-1.4082,1.4325,1.4325,0,0,0-1.1553-.4922,1.5778,1.5778,0,0,0-1.1655.4785A2.17,2.17,0,0,0,165.7891,293.6992Z"></path><path class="d" d="M172.2217,298.2168v-7.5117h1.5039l.2324,1.1484a2.3735,2.3735,0,0,1,2.14-1.1836,3.4841,3.4841,0,0,1,.4785.0274l-.0274,1.498a3.8275,3.8275,0,0,0-.5674-.041,1.9256,1.9256,0,0,0-1.48.5254,2.07,2.07,0,0,0-.4888,1.4629v4.0742Z"></path><path class="d" d="M267.999,298.2178V288.2031h2.8985a8.4339,8.4339,0,0,1,2.3515.3008,5.0266,5.0266,0,0,1,1.7876.9063,3.89,3.89,0,0,1,1.1485,1.5586,5.6571,5.6571,0,0,1,.4,2.2041,4.7506,4.7506,0,0,1-1.4629,3.7353,5.8624,5.8624,0,0,1-4.0537,1.31Zm1.8526-1.4834h1.3261a3.1463,3.1463,0,0,0,3.5069-3.52,3.46,3.46,0,0,0-.9229-2.6826,4.0236,4.0236,0,0,0-2.7822-.8379h-1.1279Z"></path><path class="d" d="M281.6436,298.3613a3.74,3.74,0,0,1-2.82-1.0429,3.9673,3.9673,0,0,1-1.0083-2.8809,4.1124,4.1124,0,0,1,.95-2.8506,3.3262,3.3262,0,0,1,2.5908-1.0664,3.0458,3.0458,0,0,1,2.41.9707,3.7517,3.7517,0,0,1,.8579,2.5772c0,.0781-.001.2031-.0034.3759s-.0034.3008-.0034.3828H279.62a2.3614,2.3614,0,0,0,.5777,1.63,1.9889,1.9889,0,0,0,1.5141.5782,4.7414,4.7414,0,0,0,2.3652-.6426l.253,1.2715A5.0081,5.0081,0,0,1,281.6436,298.3613Zm-1.9893-4.6621h3.2812a2.12,2.12,0,0,0-.4169-1.4082,1.4327,1.4327,0,0,0-1.1553-.4922,1.5814,1.5814,0,0,0-1.1655.4785A2.17,2.17,0,0,0,279.6543,293.6992Z"></path><path class="d" d="M286.4219,298.2178v-6.44h-1.1826v-1.0664h1.1826v-.2256q.0066-.5127.0444-.8681a3.7992,3.7992,0,0,1,.14-.6973,1.5249,1.5249,0,0,1,.2872-.5576,1.7983,1.7983,0,0,1,.4819-.3828,2.3,2.3,0,0,1,.728-.2422,5.8879,5.8879,0,0,1,1.0117-.0752h.4649l.15,1.2988h-.4785a2.0426,2.0426,0,0,0-.5777.0654.5788.5788,0,0,0-.3281.2325.9425.9425,0,0,0-.147.3857,4.0936,4.0936,0,0,0-.0342.6016v.4648h4.2725v7.5059h-1.7363v-6.44H288.165v6.44Zm4.2793-8.6065V288.08h1.7431v1.5312Z"></path><path class="d" d="M294.167,298.2178v-7.5127h1.4424l.1982.95a3.5534,3.5534,0,0,1,2.55-1.1348,2.4591,2.4591,0,0,1,1.9654.7549,3.262,3.262,0,0,1,.6528,2.1914v4.751h-1.7979v-4.5323a2.61,2.61,0,0,0-.2939-1.36,1.1276,1.1276,0,0,0-1.0322-.4512,1.9774,1.9774,0,0,0-1.063.2979,1.7972,1.7972,0,0,0-.7007.748,7.5572,7.5572,0,0,0-.13,1.6406v3.6573Z"></path><path class="d" d="M306.2119,298.3613a3.74,3.74,0,0,1-2.82-1.0429,3.9669,3.9669,0,0,1-1.0083-2.8809,4.1124,4.1124,0,0,1,.95-2.8506,3.3262,3.3262,0,0,1,2.5908-1.0664,3.0458,3.0458,0,0,1,2.41.9707,3.7517,3.7517,0,0,1,.8579,2.5772c0,.0781-.001.2031-.0034.3759s-.0035.3008-.0035.3828h-4.997a2.3609,2.3609,0,0,0,.5776,1.63,1.9892,1.9892,0,0,0,1.5142.5782,4.7414,4.7414,0,0,0,2.3652-.6426l.2529,1.2715A5.0077,5.0077,0,0,1,306.2119,298.3613Zm-1.9892-4.6621h3.2812a2.12,2.12,0,0,0-.417-1.4082,1.4325,1.4325,0,0,0-1.1553-.4922,1.5817,1.5817,0,0,0-1.1655.4785A2.17,2.17,0,0,0,304.2227,293.6992Z"></path><path class="d" d="M465.6963,298.2188V288.2031h2.8984a8.47,8.47,0,0,1,2.3516.3008,5.04,5.04,0,0,1,1.7881.9063,3.9036,3.9036,0,0,1,1.1484,1.5586,5.6654,5.6654,0,0,1,.3994,2.205,4.75,4.75,0,0,1-1.4629,3.7354,5.8654,5.8654,0,0,1-4.0537,1.31Zm1.8525-1.4844h1.3262a3.1461,3.1461,0,0,0,3.5068-3.52,3.4637,3.4637,0,0,0-.9228-2.6835,4.0227,4.0227,0,0,0-2.7822-.8379h-1.128Z"></path><path class="d" d="M479.3408,298.3613a3.7414,3.7414,0,0,1-2.8193-1.042,3.9671,3.9671,0,0,1-1.0088-2.8818,4.112,4.112,0,0,1,.95-2.85,3.32,3.32,0,0,1,2.5908-1.0664,3.0466,3.0466,0,0,1,2.41.9707,3.75,3.75,0,0,1,.8574,2.5762c0,.0781-.001.2031-.0029.3769s-.0039.3008-.0039.3828h-4.9971a2.3647,2.3647,0,0,0,.5781,1.63,1.9867,1.9867,0,0,0,1.5137.5772,4.73,4.73,0,0,0,2.3652-.6426l.2529,1.2715A5.0077,5.0077,0,0,1,479.3408,298.3613Zm-1.9892-4.6621h3.2812a2.1186,2.1186,0,0,0-.417-1.4082,1.4318,1.4318,0,0,0-1.1553-.4922,1.5805,1.5805,0,0,0-1.165.4785A2.1719,2.1719,0,0,0,477.3516,293.6992Z"></path><path class="d" d="M485.8555,298.2188l-2.9942-7.5137h1.9q.11.3076.6944,1.9111t.7753,2.1846q.39,1.1337.5606,1.7148c0-.0039.0391-.1523.1162-.4433s.1514-.5664.2227-.8243.1152-.414.1328-.4687q.0074-.0132.6259-1.8867t.7344-2.1875h1.8867l-2.8437,7.5137Z"></path><path class="d" d="M494.8652,298.3613a3.7414,3.7414,0,0,1-2.8193-1.042,3.9671,3.9671,0,0,1-1.0088-2.8818,4.112,4.112,0,0,1,.95-2.85,3.32,3.32,0,0,1,2.5908-1.0664,3.0466,3.0466,0,0,1,2.41.9707,3.75,3.75,0,0,1,.8574,2.5762c0,.0781-.001.2031-.0029.3769s-.0039.3008-.0039.3828h-4.9971a2.3652,2.3652,0,0,0,.5781,1.63,1.9867,1.9867,0,0,0,1.5137.5772,4.73,4.73,0,0,0,2.3652-.6426l.253,1.2715A5.0083,5.0083,0,0,1,494.8652,298.3613Zm-1.9892-4.6621h3.2812a2.118,2.118,0,0,0-.417-1.4082,1.4318,1.4318,0,0,0-1.1552-.4922,1.5806,1.5806,0,0,0-1.1651.4785A2.1719,2.1719,0,0,0,492.876,293.6992Z"></path><path class="d" d="M501.9336,298.32a3.8825,3.8825,0,0,1-1.2813-.1807,1.6654,1.6654,0,0,1-.8037-.5771,2.4209,2.4209,0,0,1-.41-.9434,6.7184,6.7184,0,0,1-.1162-1.3613v-7.32l1.791-.1172v7.4043a2.7031,2.7031,0,0,0,.2392,1.37,1.0429,1.0429,0,0,0,.93.3584,6.3846,6.3846,0,0,0,.8682-.0742l.0478,1.2774c-.0039,0-.06.0117-.1669.0351s-.21.041-.3077.0576-.2226.0323-.373.0479A4.0574,4.0574,0,0,1,501.9336,298.32Z"></path><path class="d" d="M507.2725,298.3613a3.3265,3.3265,0,0,1-2.625-1.08,4.7382,4.7382,0,0,1,0-5.711,3.4711,3.4711,0,0,1,2.7-1.0488,3.3471,3.3471,0,0,1,2.6357,1.0693,4.7285,4.7285,0,0,1-.0107,5.708A3.457,3.457,0,0,1,507.2725,298.3613Zm.0478-1.3593a1.551,1.551,0,0,0,1.3672-.6641,4.1837,4.1837,0,0,0,0-3.8066,1.7671,1.7671,0,0,0-2.751.0029,3.321,3.321,0,0,0-.4619,1.9111,3.2712,3.2712,0,0,0,.4649,1.8926A1.5775,1.5775,0,0,0,507.32,297.002Z"></path><path class="d" d="M512.3994,301.3418V290.7051h1.5381l.1914,1.0527a2.5276,2.5276,0,0,1,.9815-.9189,2.8671,2.8671,0,0,1,1.3632-.3252,2.68,2.68,0,0,1,1.6241.5136,3.1709,3.1709,0,0,1,1.0625,1.3975,5.2292,5.2292,0,0,1,.3623,1.999,4.53,4.53,0,0,1-.8438,2.8408,2.7336,2.7336,0,0,1-2.2871,1.0967,2.8765,2.8765,0,0,1-1.2881-.2832,2.8058,2.8058,0,0,1-.9678-.7695c.0372.6562.0547,1.0254.0547,1.1074v2.8379Zm3.6094-4.3477a1.452,1.452,0,0,0,1.2617-.67,3.3533,3.3533,0,0,0,.4609-1.914,3.2062,3.2062,0,0,0-.4648-1.9,1.5087,1.5087,0,0,0-1.292-.6348q-1.7769,0-1.7978,2.42a3.5912,3.5912,0,0,0,.4619,2.0469A1.5681,1.5681,0,0,0,516.0088,296.9941Z"></path><path class="d" d="M609.5557,298.2168V288.2031h2.8984a8.4327,8.4327,0,0,1,2.3516.3008,5.0249,5.0249,0,0,1,1.7881.9053,3.9036,3.9036,0,0,1,1.1484,1.5586,5.6608,5.6608,0,0,1,.3994,2.2041,4.7524,4.7524,0,0,1-1.4629,3.7363,5.86,5.86,0,0,1-4.0537,1.3086Zm1.8525-1.4824h1.3262a3.1474,3.1474,0,0,0,3.5068-3.5215,3.46,3.46,0,0,0-.9228-2.6826,4.0279,4.0279,0,0,0-2.7823-.8369h-1.1279Z"></path><path class="d" d="M623.2,298.3613a3.7383,3.7383,0,0,1-2.8193-1.0429,3.9682,3.9682,0,0,1-1.0088-2.8809,4.1176,4.1176,0,0,1,.95-2.8516,3.3268,3.3268,0,0,1,2.5908-1.0664,3.05,3.05,0,0,1,2.41.9707,3.755,3.755,0,0,1,.8575,2.5782q0,.1157-.003.375c-.0029.1738-.0039.3007-.0039.3828h-4.997a2.3637,2.3637,0,0,0,.5781,1.6308,1.9909,1.9909,0,0,0,1.5137.5782,4.74,4.74,0,0,0,2.3652-.6426l.2529,1.2715A5.0077,5.0077,0,0,1,623.2,298.3613Zm-1.9893-4.6621h3.2813a2.1168,2.1168,0,0,0-.417-1.4082,1.4318,1.4318,0,0,0-1.1553-.4922,1.5767,1.5767,0,0,0-1.165.4785A2.17,2.17,0,0,0,621.2109,293.6992Z"></path><path class="d" d="M630.2686,298.32a3.8569,3.8569,0,0,1-1.2813-.1816,1.6673,1.6673,0,0,1-.8037-.5782,2.41,2.41,0,0,1-.41-.9433,6.7061,6.7061,0,0,1-.1162-1.3594v-7.3223l1.791-.1152v7.4024a2.7039,2.7039,0,0,0,.2393,1.3711,1.0433,1.0433,0,0,0,.93.3593,6.2872,6.2872,0,0,0,.8682-.0761l.0478,1.2793c-.0039,0-.06.0107-.167.0332s-.21.0429-.3076.0585-.2227.0313-.3731.0479A3.805,3.805,0,0,1,630.2686,298.32Z"></path><path class="d" d="M632.4629,289.6113V288.08h1.7978v1.5312Zm0,8.6055v-7.5117h1.791v7.5117Z"></path><path class="d" d="M638.2256,298.2168l-2.9942-7.5117h1.9q.11.3076.6944,1.91t.7754,2.1836q.39,1.1353.5605,1.7168c0-.0049.0391-.1533.1162-.4453s.1514-.5664.2227-.8232.1152-.4131.1328-.4678q.0073-.0147.626-1.8867.6182-1.8735.7343-2.1875h1.8868l-2.8438,7.5117Z"></path><path class="d" d="M647.2354,298.3613a3.7386,3.7386,0,0,1-2.8194-1.0429,3.9686,3.9686,0,0,1-1.0088-2.8809,4.1176,4.1176,0,0,1,.95-2.8516,3.3269,3.3269,0,0,1,2.5908-1.0664,3.05,3.05,0,0,1,2.41.9707,3.755,3.755,0,0,1,.8574,2.5782q0,.1157-.0029.375c-.0029.1738-.0039.3007-.0039.3828h-4.9971a2.3646,2.3646,0,0,0,.5781,1.6308,1.9911,1.9911,0,0,0,1.5137.5782,4.74,4.74,0,0,0,2.3652-.6426l.253,1.2715A5.0081,5.0081,0,0,1,647.2354,298.3613Zm-1.9893-4.6621h3.2812a2.1168,2.1168,0,0,0-.4169-1.4082,1.432,1.432,0,0,0-1.1553-.4922,1.5768,1.5768,0,0,0-1.1651.4785A2.17,2.17,0,0,0,645.2461,293.6992Z"></path><path class="d" d="M651.6787,298.2168v-7.5117h1.5039l.2324,1.1484a2.3741,2.3741,0,0,1,2.14-1.1836,3.4779,3.4779,0,0,1,.4785.0274l-.0273,1.498a3.8186,3.8186,0,0,0-.5674-.041,1.9246,1.9246,0,0,0-1.48.5254,2.0678,2.0678,0,0,0-.4893,1.4629v4.0742Z"></path><g class="e"><path class="f" d="M24,294c0-20.9,3.1-24,24-24s24,3.1,24,24-3.1,24-24,24-24-3.1-24-24"></path></g><g class="e"><path class="g" d="M368,294c0-20.9,3.1-24,24-24s24,3.1,24,24-3.1,24-24,24-24-3.1-24-24"></path></g><g class="e"><path class="h" d="M712,294c0-20.9,3.1-24,24-24s24,3.1,24,24-3.1,24-24,24-24-3.1-24-24"></path></g><line class="i" x1="220" y1="152.6739" x2="220" y2="158.6739"></line><line class="j" x1="220" y1="170.4414" x2="220" y2="423.4424"></line><line class="i" x1="220" y1="429.3261" x2="220" y2="435.3261"></line><line class="k" x1="564" y1="152.6739" x2="564" y2="158.6739"></line><line class="l" x1="564" y1="170.4414" x2="564" y2="423.4424"></line><line class="k" x1="564" y1="429.3261" x2="564" y2="435.3261"></line><path class="d" d="M24.6563,222.0005v-8.6074h2.8593a5.1158,5.1158,0,0,1,1.7344.2607,2.3392,2.3392,0,0,1,1.14.8467,2.465,2.465,0,0,1,.419,1.4707,3.47,3.47,0,0,1-.1582,1.0928,2.2284,2.2284,0,0,1-1.544,1.4677,5.2553,5.2553,0,0,1-1.5908.211q-.7968,0-1.2949-.0469v3.3047Zm2.6894-4.4063a3.3884,3.3884,0,0,0,.8467-.0937,1.6891,1.6891,0,0,0,.5625-.24,1.1055,1.1055,0,0,0,.3222-.3633,1.4076,1.4076,0,0,0,.1583-.419,2.4718,2.4718,0,0,0,.038-.4541,1.3044,1.3044,0,0,0-.457-1.0781,2.0024,2.0024,0,0,0-1.2891-.3691H26.2207v3.0058Q26.2911,217.5942,27.3457,217.5942Z"></path><path class="d" d="M31.8516,222.0005V215.561h1.289l.1992.9844a2.0345,2.0345,0,0,1,1.834-1.0137,2.9053,2.9053,0,0,1,.41.0235l-.0235,1.2832a3.266,3.266,0,0,0-.4863-.0352,1.65,1.65,0,0,0-1.2685.4512,1.7721,1.7721,0,0,0-.419,1.2539v3.4922Z"></path><path class="d" d="M39.2285,222.1235a2.852,2.852,0,0,1-2.25-.9257,4.0623,4.0623,0,0,1,0-4.8956,2.974,2.974,0,0,1,2.3145-.8994,2.87,2.87,0,0,1,2.2588.917,4.0523,4.0523,0,0,1-.0088,4.8926A2.9653,2.9653,0,0,1,39.2285,222.1235Zm.041-1.166a1.33,1.33,0,0,0,1.1719-.5683,3.5877,3.5877,0,0,0,0-3.2637,1.5148,1.5148,0,0,0-2.3584.0029,2.8441,2.8441,0,0,0-.3955,1.6377,2.8065,2.8065,0,0,0,.3984,1.6231A1.3514,1.3514,0,0,0,39.27,220.9575Z"></path><path class="d" d="M47.0449,222.1235a2.4649,2.4649,0,0,1-1.1924-.29,2.0762,2.0762,0,0,1-.7763-.6592l-.1524.82h-1.33V213.188l1.5351-.1v1.9922q0,.58-.0351,1.3183a2.3859,2.3859,0,0,1,1.9863-.9961,2.2972,2.2972,0,0,1,1.9306.9141,3.8247,3.8247,0,0,1,.7,2.3906,3.95,3.95,0,0,1-.7236,2.4756A2.3248,2.3248,0,0,1,47.0449,222.1235Zm-.3691-1.166a1.278,1.278,0,0,0,1.0957-.58,2.8246,2.8246,0,0,0,.41-1.6464,2.74,2.74,0,0,0-.4013-1.6231,1.2753,1.2753,0,0,0-1.0869-.5508q-1.5586,0-1.5762,2.1035a3.056,3.056,0,0,0,.3926,1.74A1.334,1.334,0,0,0,46.6758,220.9575Z"></path><path class="d" d="M53.2207,222.0884a3.3179,3.3179,0,0,1-1.0986-.1553,1.4271,1.4271,0,0,1-.6885-.4951,2.0555,2.0555,0,0,1-.3516-.8086,5.734,5.734,0,0,1-.1-1.166V213.188l1.5352-.1v6.3457a2.3127,2.3127,0,0,0,.2051,1.1748.8928.8928,0,0,0,.7968.3076,5.4687,5.4687,0,0,0,.7442-.0644l.041,1.0957q-.0058,0-.1436.0293t-.2636.05q-.126.02-.3194.041A3.4243,3.4243,0,0,1,53.2207,222.0884Z"></path><path class="d" d="M58.0078,222.1235a3.2059,3.2059,0,0,1-2.417-.8935,3.4035,3.4035,0,0,1-.8642-2.47,3.5236,3.5236,0,0,1,.8144-2.4434,2.8491,2.8491,0,0,1,2.2207-.9141,2.6117,2.6117,0,0,1,2.0654.8321,3.2133,3.2133,0,0,1,.7354,2.2089q0,.1-.0029.3223t-.003.3281H56.2734a2.0264,2.0264,0,0,0,.4952,1.3975,1.7068,1.7068,0,0,0,1.2978.4951,4.0589,4.0589,0,0,0,2.0274-.5508l.2167,1.09A4.2924,4.2924,0,0,1,58.0078,222.1235Zm-1.7051-3.9961h2.8125a1.8168,1.8168,0,0,0-.3574-1.207,1.2281,1.2281,0,0,0-.99-.4219,1.3533,1.3533,0,0,0-.999.41A1.8623,1.8623,0,0,0,56.3027,218.1274Z"></path><path class="d" d="M61.8105,222.0005V215.561h1.2422l.1758.82q.1172-.1464.2256-.2607a2.4613,2.4613,0,0,1,.2988-.2578,2.0122,2.0122,0,0,1,.4043-.2373,2.6671,2.6671,0,0,1,.5274-.1582,3.3262,3.3262,0,0,1,.6709-.0645,2.16,2.16,0,0,1,1.2275.3106,1.7608,1.7608,0,0,1,.6475.7265,2.3068,2.3068,0,0,1,.8965-.7675,2.7478,2.7478,0,0,1,1.2246-.27,1.99,1.99,0,0,1,1.6259.627,2.858,2.858,0,0,1,.5186,1.8574v4.1133h-1.541v-3.6563a3.2694,3.2694,0,0,0-.208-1.3623.8015.8015,0,0,0-.794-.4189,1.3342,1.3342,0,0,0-1.289.8086,2.8577,2.8577,0,0,0-.2227.8613v3.7676H65.9063v-3.7266a2.7874,2.7874,0,0,0-.2286-1.2832.8558.8558,0,0,0-.8261-.4219,1.424,1.424,0,0,0-.8379.2461,1.5625,1.5625,0,0,0-.5332.6446,6.4655,6.4655,0,0,0-.1348,1.4179v3.1231Z"></path><path class="d" d="M317.8,418.32a2.94,2.94,0,0,0-.8555,1.5264,2.878,2.878,0,0,0,.1592,1.6474,4.6373,4.6373,0,0,0,1.0606,1.5489,5.0854,5.0854,0,0,0,1.1367.873,3.3677,3.3677,0,0,0,1.1943.3975,2.5007,2.5007,0,0,0,1.22-.1592,3.3775,3.3775,0,0,0,1.1641-.7871,4.7375,4.7375,0,0,0,1.0986-1.8359l.7295.4882a4.397,4.397,0,0,1-1.2812,2.0606,4.5018,4.5018,0,0,1-1.4707,1.01,3.347,3.347,0,0,1-1.5576.2569,4.0751,4.0751,0,0,1-1.5479-.458,5.9908,5.9908,0,0,1-1.4805-1.1074,5.3919,5.3919,0,0,1-1.0644-1.4708,4.1639,4.1639,0,0,1-.4238-1.57,3.5754,3.5754,0,0,1,.2783-1.5752,4.94,4.94,0,0,1,3.1982-2.7509l.3028.8662A3.9033,3.9033,0,0,0,317.8,418.32Z"></path><path class="d" d="M327.6523,415.1211a3.5892,3.5892,0,0,1,1.1495,2.2773,2.746,2.746,0,0,1-.9014,2.2149,2.687,2.687,0,0,1-2.1856.8594,4.047,4.047,0,0,1-3.416-3.42,2.7652,2.7652,0,0,1,.9033-2.2129,2.6807,2.6807,0,0,1,2.1856-.872A3.6157,3.6157,0,0,1,327.6523,415.1211Zm-3.48,3.5059a3.0208,3.0208,0,0,0,1.6533.9365,1.7233,1.7233,0,0,0,1.5332-.56,1.6628,1.6628,0,0,0,.54-1.51,3.7571,3.7571,0,0,0-2.6123-2.6211,1.92,1.92,0,0,0-2.0673,2.0879A3.0819,3.0819,0,0,0,324.1719,418.627Z"></path><path class="d" d="M330.9043,416.418l-4.5449-4.545.58-.58.7382.5644a2.8532,2.8532,0,0,1,.1319-1.2148,2.6784,2.6784,0,0,1,.667-1.0772,2.0545,2.0545,0,0,1,1.6054-.7236,2.9087,2.9087,0,0,1,1.7344.9805l2.8418,2.8418-.6914.6923q-2.7348-2.7348-2.9336-2.9248a1.9928,1.9928,0,0,0-1.084-.6152,1.249,1.249,0,0,0-.9961.457,2.11,2.11,0,0,0-.6338,1.1485,1.6546,1.6546,0,0,0,.2032,1.1308,6.1292,6.1292,0,0,0,.5966.68l2.4864,2.4864Z"></path><path class="d" d="M336.9746,410.3486l-6.3066-2.7841.7422-.7422,3.7041,1.6992,1.5664.7373q-.3033-.5845-.7549-1.5322-.5668-1.1984-1.7315-3.6885l.7373-.7373,2.7969,6.2939Z"></path><path class="d" d="M342.0459,405.4678a2.8288,2.8288,0,0,1-2.19.9306,3.5042,3.5042,0,0,1-2.293-1.1543,3.642,3.642,0,0,1-1.1621-2.2636,2.5969,2.5969,0,0,1,.7812-2.12,2.3691,2.3691,0,0,1,1.918-.7627,3.2437,3.2437,0,0,1,2.0391,1.0488c.0332.0332.0927.0947.18.1846s.15.1533.1884.1923l-3.12,3.1192a2.5376,2.5376,0,0,0,1.6084.8086,1.8789,1.8789,0,0,0,1.4756-.6094,4.3788,4.3788,0,0,0,1.0645-1.8262l.6669.4512A4.1971,4.1971,0,0,1,342.0459,405.4678Zm-3.1025-4.499a1.4588,1.4588,0,0,0-1.1983.4716,1.5707,1.5707,0,0,0-.4912,1.2412,2.4312,2.4312,0,0,0,.6318,1.419l2.3995-2.3994A2.2327,2.2327,0,0,0,338.9434,400.9688Z"></path><path class="d" d="M342.07,396.08a2.9378,2.9378,0,0,1,.3652-.3155l.6133.6631a2.7384,2.7384,0,0,0-.3652.2979,1.704,1.704,0,0,0-.5381,1.3467,2.0385,2.0385,0,0,0,.6377,1.3632l2.5527,2.5528-.6923.6914q-4.188-4.1807-4.55-4.541l.5761-.5762.8828.75a2.7383,2.7383,0,0,1-.0214-1.2227A1.9811,1.9811,0,0,1,342.07,396.08Z"></path><path class="d" d="M350.3945,401.0879l-.6875-.5625.8448-.8457a4.57,4.57,0,0,0,.5634-.6631,1.69,1.69,0,0,0,.2715-.5986,1.6249,1.6249,0,0,0,.0293-.5342,1.3865,1.3865,0,0,0-.1972-.5244,4.0451,4.0451,0,0,0-.3643-.5137c-.1328-.1572-.3037-.3418-.5137-.5508l-.4013-.4023a2.6394,2.6394,0,0,1-.0274,1.125,2.2918,2.2918,0,0,1-.6406,1.0254,2.6564,2.6564,0,0,1-.8535.584,2.3646,2.3646,0,0,1-.9131.1972,3.0867,3.0867,0,0,1-.9033-.1328,3.3925,3.3925,0,0,1-.8418-.3769,3.9789,3.9789,0,0,1-.7061-.5616,4.6946,4.6946,0,0,1-.7978-1.042,3.4485,3.4485,0,0,1-.3916-1.1162,2.3517,2.3517,0,0,1,.1123-1.1523,2.8778,2.8778,0,0,1,.7089-1.085,2.368,2.368,0,0,1,.9522-.6094,2.4929,2.4929,0,0,1,1.1269-.07l-.6044-.6054.6748-.6748,4.2177,4.2177c.1934.1934.3575.3672.4942.5215a5.1147,5.1147,0,0,1,.4111.5537,2.7378,2.7378,0,0,1,.3057.6065,2.56,2.56,0,0,1,.1152.6513,1.9,1.9,0,0,1-.1.7207,3.562,3.562,0,0,1-.3975.7832,5.4409,5.4409,0,0,1-.7216.87Zm-1.6074-3.7363a2.0441,2.0441,0,0,0,.4922-.7422,1.4273,1.4273,0,0,0,.0713-.7578,2.2862,2.2862,0,0,0-.2676-.711,3.1932,3.1932,0,0,0-.5166-.66l-.335-.336a3.3312,3.3312,0,0,0-.6855-.5361,2.1849,2.1849,0,0,0-.7314-.2715,1.4846,1.4846,0,0,0-.76.0674,1.9622,1.9622,0,0,0-.7276.48,1.7453,1.7453,0,0,0-.413.6279,1.5691,1.5691,0,0,0-.1006.669,2.3926,2.3926,0,0,0,.1533.667,2.9818,2.9818,0,0,0,.3232.625,3.7546,3.7546,0,0,0,.4385.5312,3.2153,3.2153,0,0,0,.5274.4258,2.7644,2.7644,0,0,0,.6171.3027,2.2844,2.2844,0,0,0,.6524.1309,1.6172,1.6172,0,0,0,.6543-.1123A1.72,1.72,0,0,0,348.7871,397.3516Z"></path><path class="d" d="M354.55,392.9639a2.8241,2.8241,0,0,1-2.1894.93,3.5049,3.5049,0,0,1-2.294-1.1534,3.6492,3.6492,0,0,1-1.1621-2.2636,2.5981,2.5981,0,0,1,.7812-2.12,2.3693,2.3693,0,0,1,1.918-.7626,3.2437,3.2437,0,0,1,2.0391,1.0488c.0332.0332.0937.0937.18.1836.0879.09.15.1543.1894.1933l-3.1211,3.1192a2.5376,2.5376,0,0,0,1.6084.8086,1.8789,1.8789,0,0,0,1.4756-.6094,4.3664,4.3664,0,0,0,1.0645-1.8272l.667.4522A4.1959,4.1959,0,0,1,354.55,392.9639Zm-3.1025-4.4991a1.4594,1.4594,0,0,0-1.1983.4717,1.5707,1.5707,0,0,0-.4912,1.2412,2.4394,2.4394,0,0,0,.6328,1.418l2.3985-2.3984A2.2177,2.2177,0,0,0,351.4473,388.4648Z"></path><path class="d" d="M98.0029,397.86a4.1808,4.1808,0,0,1-3.1328,1.4335,4.74,4.74,0,0,1-3.1567-1.582l-1.8194-1.8193,6.128-6.128,1.6987,1.6993a6.78,6.78,0,0,1,1.1914,1.5507,4.1951,4.1951,0,0,1,.5034,1.5977,3.3079,3.3079,0,0,1-.2754,1.6387A5.2053,5.2053,0,0,1,98.0029,397.86Zm-.7876-.7452a3.3513,3.3513,0,0,0,1.2056-2.5322,4.0072,4.0072,0,0,0-1.3462-2.5146l-.9614-.962-4.877,4.877,1.0816,1.082a3.6008,3.6008,0,0,0,2.4531,1.2305A3.41,3.41,0,0,0,97.2153,397.1152Z"></path><path class="d" d="M101.3506,398.2588l-4.5454,4.5449-.6963-.6963,4.5454-4.5459Zm1.6528-1.6533-.82.82-.6963-.6963.82-.82Z"></path><path class="d" d="M99.2705,405.2686l2.7842-6.3067.7417.7422-1.6987,3.7051-.7378,1.5654q.5844-.3018,1.5332-.7539,1.1975-.5668,3.6875-1.7324l.7378.7373-6.294,2.7969Z"></path><path class="d" d="M104.1509,410.34a2.8239,2.8239,0,0,1-.93-2.1894,3.5012,3.5012,0,0,1,1.1538-2.294,3.64,3.64,0,0,1,2.2642-1.1611,2.5937,2.5937,0,0,1,2.1191.78,2.3669,2.3669,0,0,1,.7622,1.918,3.241,3.241,0,0,1-1.0483,2.039c-.0332.0332-.0943.0938-.1841.18-.09.0879-.1538.15-.1924.19l-3.12-3.12a2.536,2.536,0,0,0-.8086,1.6075,1.8814,1.8814,0,0,0,.6089,1.4755,4.37,4.37,0,0,0,1.8276,1.0645l-.4521.667A4.1938,4.1938,0,0,1,104.1509,410.34Zm4.5-3.1025a1.46,1.46,0,0,0-.4722-1.1982,1.5706,1.5706,0,0,0-1.2407-.4912,2.44,2.44,0,0,0-1.4189.6328l2.3989,2.3984A2.2211,2.2211,0,0,0,108.65,407.2373Z"></path><path class="d" d="M113.54,410.3652a3.0234,3.0234,0,0,1,.3149.3643l-.6626.6133a2.8352,2.8352,0,0,0-.2983-.3653,1.7055,1.7055,0,0,0-1.3472-.538,2.04,2.04,0,0,0-1.3628.6376l-2.5523,2.5528-.6918-.6914q4.1807-4.1895,4.541-4.5508l.5761.5762-.75.8828a2.736,2.736,0,0,1,1.2222-.0205A1.9845,1.9845,0,0,1,113.54,410.3652Z"></path><path class="d" d="M108.5308,418.6885l.5634-.6875.8453.8457a4.6586,4.6586,0,0,0,.6626.5625,1.6841,1.6841,0,0,0,.5986.2715,1.6014,1.6014,0,0,0,.5342.0293,1.3758,1.3758,0,0,0,.5249-.1973,3.7811,3.7811,0,0,0,.5131-.3643c.1578-.1318.3414-.3037.5508-.5136l.4019-.4014a2.6241,2.6241,0,0,1-1.1245-.0273,2.2915,2.2915,0,0,1-1.0254-.6407,2.675,2.675,0,0,1-.5845-.8535,2.3916,2.3916,0,0,1-.1968-.9131,3.1273,3.1273,0,0,1,.1328-.9033,3.41,3.41,0,0,1,.377-.8408,3.9633,3.9633,0,0,1,.5615-.707,4.6619,4.6619,0,0,1,1.042-.7969,3.4125,3.4125,0,0,1,1.1167-.3916,2.3377,2.3377,0,0,1,1.1519.1113,2.8846,2.8846,0,0,1,1.0854.709,2.3774,2.3774,0,0,1,.6094.9531,2.4909,2.4909,0,0,1,.07,1.127l.605-.6055.6753.6758-4.2183,4.2178c-.1929.1923-.3672.3574-.522.4931a5.1047,5.1047,0,0,1-.5527.4121,2.7207,2.7207,0,0,1-.6074.3047,2.5442,2.5442,0,0,1-.65.1153,1.9021,1.9021,0,0,1-.7207-.1,3.5683,3.5683,0,0,1-.7832-.3964,5.4543,5.4543,0,0,1-.87-.7217Zm3.7373-1.6074a2.0339,2.0339,0,0,0,.7412.4931,1.4165,1.4165,0,0,0,.7578.07,2.2538,2.2538,0,0,0,.7109-.2675,3.19,3.19,0,0,0,.6612-.5157l.3354-.3349a3.349,3.349,0,0,0,.5361-.6856,2.2138,2.2138,0,0,0,.2715-.7324,1.4847,1.4847,0,0,0-.0678-.76,1.9463,1.9463,0,0,0-.479-.7265,1.7363,1.7363,0,0,0-.6275-.4131,1.5578,1.5578,0,0,0-.6694-.1006,2.3537,2.3537,0,0,0-.667.1523,2.9934,2.9934,0,0,0-.6255.3233,3.6928,3.6928,0,0,0-.53.4394,3.2446,3.2446,0,0,0-.4267.5264,2.8744,2.8744,0,0,0-.3028.6172,2.2824,2.2824,0,0,0-.13.6523,1.6164,1.6164,0,0,0,.1123.6543A1.7059,1.7059,0,0,0,112.2681,417.0811Z"></path><path class="d" d="M116.6553,422.8447a2.8262,2.8262,0,0,1-.93-2.19,3.5,3.5,0,0,1,1.1543-2.293,3.6422,3.6422,0,0,1,2.2637-1.1621,2.5979,2.5979,0,0,1,2.12.78,2.3687,2.3687,0,0,1,.7622,1.9189,3.2366,3.2366,0,0,1-1.0483,2.0381c-.0332.0332-.0943.0938-.1841.1807s-.1538.1494-.1924.1885l-3.12-3.12a2.5369,2.5369,0,0,0-.8081,1.6084,1.8781,1.8781,0,0,0,.6089,1.4747,4.3662,4.3662,0,0,0,1.8271,1.0644l-.4516.668A4.2,4.2,0,0,1,116.6553,422.8447Zm4.4995-3.1035a1.4592,1.4592,0,0,0-.4722-1.1973,1.5679,1.5679,0,0,0-1.2407-.4912,2.4373,2.4373,0,0,0-1.419.6319l2.399,2.3984A2.2159,2.2159,0,0,0,121.1548,419.7412Z"></path><path class="d" d="M339.33,221v-8.6074H342.19a5.1152,5.1152,0,0,1,1.7343.2607,2.34,2.34,0,0,1,1.14.8467,2.4652,2.4652,0,0,1,.4189,1.4707,3.47,3.47,0,0,1-.1582,1.0928,2.2289,2.2289,0,0,1-1.5439,1.4678,5.26,5.26,0,0,1-1.5908.2109q-.7969,0-1.295-.0469V221Zm2.6894-4.4062a3.3869,3.3869,0,0,0,.8467-.0938,1.6891,1.6891,0,0,0,.5625-.24,1.1058,1.1058,0,0,0,.3223-.3633,1.4062,1.4062,0,0,0,.1582-.419,2.4626,2.4626,0,0,0,.0381-.4541,1.3044,1.3044,0,0,0-.4571-1.0781,2.0021,2.0021,0,0,0-1.289-.3691h-1.3067v3.0058Q340.9648,216.5937,342.02,216.5938Z"></path><path class="d" d="M346.5254,221v-6.44h1.2891l.1992.9844a2.0343,2.0343,0,0,1,1.834-1.0136,2.9069,2.9069,0,0,1,.41.0234l-.0234,1.2832a3.2818,3.2818,0,0,0-.4864-.0352,1.65,1.65,0,0,0-1.2685.4512,1.7722,1.7722,0,0,0-.419,1.2539V221Z"></path><path class="d" d="M353.9023,221.123a2.8517,2.8517,0,0,1-2.25-.9257,4.0621,4.0621,0,0,1,0-4.8955,2.9737,2.9737,0,0,1,2.3145-.8995,2.87,2.87,0,0,1,2.2588.917,4.052,4.052,0,0,1-.0088,4.8926A2.9653,2.9653,0,0,1,353.9023,221.123Zm.0411-1.166a1.33,1.33,0,0,0,1.1718-.5683,3.5877,3.5877,0,0,0,0-3.2637,1.5148,1.5148,0,0,0-2.3584.0029,2.8449,2.8449,0,0,0-.3955,1.6377,2.8054,2.8054,0,0,0,.3985,1.6231A1.3512,1.3512,0,0,0,353.9434,219.957Z"></path><path class="d" d="M361.7188,221.123a2.4646,2.4646,0,0,1-1.1924-.29,2.0766,2.0766,0,0,1-.7764-.6592l-.1523.82h-1.33v-8.8066l1.5351-.1V214.08q0,.58-.0351,1.3183a2.3859,2.3859,0,0,1,1.9863-.9961,2.2974,2.2974,0,0,1,1.9307.9141,3.8249,3.8249,0,0,1,.7,2.3906,3.95,3.95,0,0,1-.7237,2.4756A2.3246,2.3246,0,0,1,361.7188,221.123Zm-.3692-1.166a1.278,1.278,0,0,0,1.0957-.58,2.8244,2.8244,0,0,0,.41-1.6465,2.74,2.74,0,0,0-.4014-1.6231,1.2753,1.2753,0,0,0-1.0869-.5508q-1.5587,0-1.5762,2.1036a3.0566,3.0566,0,0,0,.3926,1.74A1.334,1.334,0,0,0,361.35,219.957Z"></path><path class="d" d="M367.8945,221.0879a3.3179,3.3179,0,0,1-1.0986-.1553,1.4271,1.4271,0,0,1-.6885-.4951,2.0568,2.0568,0,0,1-.3515-.8086,5.734,5.734,0,0,1-.1-1.166v-6.2754l1.5351-.1v6.3457a2.3138,2.3138,0,0,0,.2051,1.1748.8929.8929,0,0,0,.7969.3076,5.4674,5.4674,0,0,0,.7441-.0644l.041,1.0957q-.0058,0-.1435.0293t-.2637.05q-.126.02-.3193.041A3.4,3.4,0,0,1,367.8945,221.0879Z"></path><path class="d" d="M372.6816,221.123a3.2059,3.2059,0,0,1-2.417-.8935,3.4039,3.4039,0,0,1-.8642-2.47,3.5241,3.5241,0,0,1,.8144-2.4434,2.8494,2.8494,0,0,1,2.2207-.9141,2.6119,2.6119,0,0,1,2.0655.8321,3.2138,3.2138,0,0,1,.7353,2.209q0,.1-.0029.3222t-.0029.3282h-4.2832a2.0258,2.0258,0,0,0,.4951,1.3974,1.7069,1.7069,0,0,0,1.2978.4951,4.0586,4.0586,0,0,0,2.0274-.5508l.2168,1.09A4.2928,4.2928,0,0,1,372.6816,221.123Zm-1.705-3.996h2.8125a1.8169,1.8169,0,0,0-.3575-1.2071,1.228,1.228,0,0,0-.99-.4219,1.3536,1.3536,0,0,0-.999.41A1.8618,1.8618,0,0,0,370.9766,217.127Z"></path><path class="d" d="M376.4844,221v-6.44h1.2422l.1757.82q.1173-.1465.2256-.2608a2.4556,2.4556,0,0,1,.2989-.2578,2.01,2.01,0,0,1,.4043-.2373,2.6639,2.6639,0,0,1,.5273-.1582,3.3262,3.3262,0,0,1,.6709-.0645,2.1606,2.1606,0,0,1,1.2275.3106,1.76,1.76,0,0,1,.6475.7266,2.3069,2.3069,0,0,1,.8965-.7676,2.7484,2.7484,0,0,1,1.2246-.27,1.99,1.99,0,0,1,1.626.627,2.858,2.858,0,0,1,.5185,1.8574V221h-1.541v-3.6562a3.268,3.268,0,0,0-.208-1.3624.8014.8014,0,0,0-.7939-.4189,1.3342,1.3342,0,0,0-1.2891.8086,2.8577,2.8577,0,0,0-.2227.8613V221H380.58v-3.7266a2.7889,2.7889,0,0,0-.2285-1.2832.856.856,0,0,0-.8262-.4218,1.4237,1.4237,0,0,0-.8379.2461,1.5622,1.5622,0,0,0-.5332.6445,6.4719,6.4719,0,0,0-.1348,1.418V221Z"></path><path class="d" d="M391.0039,221v-8.584h2.4844a7.2532,7.2532,0,0,1,2.0156.2578,4.3132,4.3132,0,0,1,1.5322.7764,3.3456,3.3456,0,0,1,.9844,1.3359,4.8549,4.8549,0,0,1,.3428,1.89,4.0736,4.0736,0,0,1-1.2539,3.2021A5.0263,5.0263,0,0,1,393.6348,221Zm1.5879-1.2715h1.1367a2.6972,2.6972,0,0,0,3.0059-3.0176,2.9679,2.9679,0,0,0-.791-2.3,3.4507,3.4507,0,0,0-2.3848-.7177h-.9668Z"></path><path class="d" d="M402.6992,221.123a3.2059,3.2059,0,0,1-2.417-.8935,3.4039,3.4039,0,0,1-.8642-2.47,3.5241,3.5241,0,0,1,.8144-2.4434,2.8494,2.8494,0,0,1,2.2207-.9141,2.6121,2.6121,0,0,1,2.0655.8321,3.2138,3.2138,0,0,1,.7353,2.209q0,.1-.0029.3222t-.003.3282h-4.2832a2.0263,2.0263,0,0,0,.4952,1.3974,1.7068,1.7068,0,0,0,1.2978.4951,4.0589,4.0589,0,0,0,2.0274-.5508l.2168,1.09A4.293,4.293,0,0,1,402.6992,221.123Zm-1.7051-3.996h2.8125a1.8169,1.8169,0,0,0-.3574-1.2071,1.2281,1.2281,0,0,0-.99-.4219,1.3534,1.3534,0,0,0-.999.41A1.8623,1.8623,0,0,0,400.9941,217.127Z"></path><path class="d" d="M406.7949,221v-5.5195h-1.0136v-.9141h1.0136v-.1934q.0059-.4393.0381-.7441a3.2741,3.2741,0,0,1,.12-.5976,1.2973,1.2973,0,0,1,.2461-.4776,1.5183,1.5183,0,0,1,.4131-.3281,1.95,1.95,0,0,1,.624-.208,5.1012,5.1012,0,0,1,.8672-.0645h.3985l.1289,1.1133h-.41a1.7721,1.7721,0,0,0-.4951.0557.5.5,0,0,0-.2813.1992.8074.8074,0,0,0-.1259.331,3.5136,3.5136,0,0,0-.0293.5157v.3984h3.6621V221h-1.4883v-5.5195h-2.1738V221Zm3.668-7.377v-1.3125h1.4941v1.3125Z"></path><path class="d" d="M413.4336,221v-6.44H414.67l.17.8145a3.0472,3.0472,0,0,1,2.1856-.9727,2.1064,2.1064,0,0,1,1.6846.6475,2.7933,2.7933,0,0,1,.56,1.8779V221h-1.541v-3.8848a2.2377,2.2377,0,0,0-.2519-1.166.9664.9664,0,0,0-.8848-.3867,1.7015,1.7015,0,0,0-.9111.2549,1.5459,1.5459,0,0,0-.6006.6416,6.4682,6.4682,0,0,0-.1113,1.4062V221Z"></path><path class="d" d="M420.8164,213.623v-1.3125h1.541v1.3125Zm0,7.377v-6.44h1.5352V221Z"></path><path class="d" d="M426.5234,221.0879a3.2964,3.2964,0,0,1-1.0927-.1553,1.4076,1.4076,0,0,1-.6827-.4892,2.0871,2.0871,0,0,1-.3486-.7881,5.1989,5.1989,0,0,1-.1025-1.1221v-3.041h-1.0547l.0586-.832,1.1015-.1.4922-1.746.9375-.0059v1.7519h1.6v.9317h-1.6v3.07a1.9282,1.9282,0,0,0,.211,1.043.8765.8765,0,0,0,.7793.31,4.71,4.71,0,0,0,.7148-.0586l.041,1.1016q-.0117,0-.1435.0264t-.252.0468q-.12.0206-.3076.0381T426.5234,221.0879Z"></path><path class="d" d="M428.6914,213.623v-1.3125h1.541v1.3125Zm0,7.377v-6.44h1.5352V221Z"></path><path class="d" d="M434.5918,221.123a2.8517,2.8517,0,0,1-2.25-.9257,4.0621,4.0621,0,0,1,0-4.8955,2.9737,2.9737,0,0,1,2.3145-.8995,2.87,2.87,0,0,1,2.2587.917,4.0522,4.0522,0,0,1-.0087,4.8926A2.9653,2.9653,0,0,1,434.5918,221.123Zm.041-1.166a1.33,1.33,0,0,0,1.1719-.5683,3.5877,3.5877,0,0,0,0-3.2637,1.5148,1.5148,0,0,0-2.3584.0029,2.8441,2.8441,0,0,0-.3955,1.6377,2.8062,2.8062,0,0,0,.3984,1.6231A1.3513,1.3513,0,0,0,434.6328,219.957Z"></path><path class="d" d="M438.9863,221v-6.44h1.2364l.17.8145a3.0469,3.0469,0,0,1,2.1855-.9727,2.1064,2.1064,0,0,1,1.6846.6475,2.7933,2.7933,0,0,1,.56,1.8779V221h-1.541v-3.8848a2.2376,2.2376,0,0,0-.252-1.166.9664.9664,0,0,0-.8848-.3867,1.7015,1.7015,0,0,0-.9111.2549,1.5459,1.5459,0,0,0-.6006.6416,6.4682,6.4682,0,0,0-.1113,1.4062V221Z"></path><path class="d" d="M715.6211,222.1177a5.4375,5.4375,0,0,1-2.7832-.7149l.3867-1.26a5.7983,5.7983,0,0,0,1.1983.4922,4.5278,4.5278,0,0,0,1.2626.1875,1.7366,1.7366,0,0,0,1.1426-.3252,1.1529,1.1529,0,0,0,.3867-.9346q0-.8087-1.0781-1.1192-.0762-.0234-.4277-.1259t-.6592-.1992q-.3076-.0967-.4424-.1495a2.2742,2.2742,0,0,1-1.7285-2.2734,2.1294,2.1294,0,0,1,.8291-1.7988,3.5332,3.5332,0,0,1,2.2-.6328,5.3377,5.3377,0,0,1,2.6777.6386l-.48,1.16a5.24,5.24,0,0,0-2.1328-.5156,1.885,1.885,0,0,0-1.0694.249.9879.9879,0,0,0-.3838.8291.9.9,0,0,0,.709.9316q.1407.0528.6914.2285t.7149.2286a3.8,3.8,0,0,1,1.6845.9609,2.3356,2.3356,0,0,1,.5069,1.6,2.2253,2.2253,0,0,1-.8672,1.8838A3.7719,3.7719,0,0,1,715.6211,222.1177Z"></path><path class="d" d="M722.7988,222.1235a2.852,2.852,0,0,1-2.25-.9257,4.0623,4.0623,0,0,1,0-4.8956,2.974,2.974,0,0,1,2.3145-.8994,2.87,2.87,0,0,1,2.2588.917,4.052,4.052,0,0,1-.0088,4.8926A2.9653,2.9653,0,0,1,722.7988,222.1235Zm.041-1.166a1.33,1.33,0,0,0,1.1719-.5683,3.5877,3.5877,0,0,0,0-3.2637,1.5148,1.5148,0,0,0-2.3584.0029,2.8441,2.8441,0,0,0-.3955,1.6377,2.8057,2.8057,0,0,0,.3985,1.6231A1.3512,1.3512,0,0,0,722.84,220.9575Z"></path><path class="d" d="M729.4492,222.0884a3.3179,3.3179,0,0,1-1.0986-.1553,1.4271,1.4271,0,0,1-.6885-.4951,2.057,2.057,0,0,1-.3516-.8086,5.734,5.734,0,0,1-.1-1.166V213.188l1.5352-.1v6.3457a2.3138,2.3138,0,0,0,.2051,1.1748.8928.8928,0,0,0,.7968.3076,5.4674,5.4674,0,0,0,.7442-.0644l.041,1.0957q-.0058,0-.1436.0293t-.2636.05q-.126.02-.3194.041A3.4243,3.4243,0,0,1,729.4492,222.0884Z"></path><path class="d" d="M735.9414,221.4937a3.5611,3.5611,0,0,1-4.04.0029,2.2411,2.2411,0,0,1-.7647-1.84V215.561h1.541v4.0371a1.4952,1.4952,0,0,0,.3018,1.043,1.2579,1.2579,0,0,0,.958.3223,1.2272,1.2272,0,0,0,.94-.3194,1.5138,1.5138,0,0,0,.2959-1.0459V215.561h1.5352v4.0957A2.2391,2.2391,0,0,1,735.9414,221.4937Z"></path><path class="d" d="M740.6816,222.0884a3.2964,3.2964,0,0,1-1.0927-.1553,1.4068,1.4068,0,0,1-.6826-.4893,2.0845,2.0845,0,0,1-.3487-.788,5.1989,5.1989,0,0,1-.1025-1.1221v-3.041H737.4l.0586-.8321,1.1015-.1.4922-1.7461.9375-.0058v1.7519h1.6v.9317h-1.6v3.07a1.9282,1.9282,0,0,0,.211,1.043.8765.8765,0,0,0,.7793.3105,4.71,4.71,0,0,0,.7148-.0586l.041,1.1016q-.0117,0-.1435.0263t-.252.0469q-.12.0205-.3076.0381T740.6816,222.0884Z"></path><path class="d" d="M742.85,214.6235V213.311h1.541v1.3125Zm0,7.377V215.561h1.5352v6.4395Z"></path><path class="d" d="M748.75,222.1235a2.852,2.852,0,0,1-2.25-.9257,4.0623,4.0623,0,0,1,0-4.8956,2.974,2.974,0,0,1,2.3145-.8994,2.87,2.87,0,0,1,2.2587.917,4.0522,4.0522,0,0,1-.0087,4.8926A2.9653,2.9653,0,0,1,748.75,222.1235Zm.041-1.166a1.33,1.33,0,0,0,1.1719-.5683,3.5877,3.5877,0,0,0,0-3.2637,1.5148,1.5148,0,0,0-2.3584.0029,2.8441,2.8441,0,0,0-.3955,1.6377,2.8065,2.8065,0,0,0,.3984,1.6231A1.3513,1.3513,0,0,0,748.791,220.9575Z"></path><path class="d" d="M753.1445,222.0005V215.561h1.2364l.17.8145a3.0469,3.0469,0,0,1,2.1855-.9727,2.1063,2.1063,0,0,1,1.6846.6475,2.7933,2.7933,0,0,1,.56,1.8779v4.0723H757.44v-3.8848a2.2376,2.2376,0,0,0-.252-1.166.9664.9664,0,0,0-.8848-.3867,1.7006,1.7006,0,0,0-.9111.2549,1.5459,1.5459,0,0,0-.6006.6416,6.4682,6.4682,0,0,0-.1113,1.4062v3.1348Z"></path><g class="e"><circle class="f" cx="48" cy="198" r="6"></circle></g><g class="e"><circle class="g" cx="392" cy="198" r="6"></circle></g><g class="e"><circle class="h" cx="735.9999" cy="198" r="6"></circle></g><line class="i" x1="148.2543" y1="434.2543" x2="73.6569" y2="359.6569"></line><polygon class="m" points="151.247 428.786 154.344 440.343 142.786 437.247 151.247 428.786"></polygon><line class="i" x1="285.6569" y1="440.3431" x2="360.2543" y2="365.7457"></line><polygon class="m" points="363.247 371.214 366.344 359.657 354.786 362.753 363.247 371.214"></polygon><path class="d" d="M661.8,418.32a2.94,2.94,0,0,0-.8555,1.5264,2.878,2.878,0,0,0,.1592,1.6474,4.6373,4.6373,0,0,0,1.0606,1.5489,5.0854,5.0854,0,0,0,1.1367.873,3.3677,3.3677,0,0,0,1.1943.3975,2.5007,2.5007,0,0,0,1.22-.1592,3.3775,3.3775,0,0,0,1.1641-.7871,4.7375,4.7375,0,0,0,1.0986-1.8359l.73.4882a4.397,4.397,0,0,1-1.2812,2.0606,4.5018,4.5018,0,0,1-1.4707,1.01,3.347,3.347,0,0,1-1.5576.2569,4.0751,4.0751,0,0,1-1.5479-.458,5.9908,5.9908,0,0,1-1.4805-1.1074,5.3919,5.3919,0,0,1-1.0644-1.4708,4.1639,4.1639,0,0,1-.4238-1.57,3.5754,3.5754,0,0,1,.2783-1.5752,4.94,4.94,0,0,1,3.1982-2.7509l.3028.8662A3.9033,3.9033,0,0,0,661.8,418.32Z"></path><path class="d" d="M671.6523,415.1211a3.5892,3.5892,0,0,1,1.1495,2.2773,2.746,2.746,0,0,1-.9014,2.2149,2.687,2.687,0,0,1-2.1856.8594,4.047,4.047,0,0,1-3.416-3.42,2.7652,2.7652,0,0,1,.9033-2.2129,2.6807,2.6807,0,0,1,2.1856-.872A3.6157,3.6157,0,0,1,671.6523,415.1211Zm-3.48,3.5059a3.0208,3.0208,0,0,0,1.6533.9365,1.7233,1.7233,0,0,0,1.5332-.56,1.6628,1.6628,0,0,0,.54-1.51,3.7571,3.7571,0,0,0-2.6123-2.6211,1.92,1.92,0,0,0-2.0673,2.0879A3.0819,3.0819,0,0,0,668.1719,418.627Z"></path><path class="d" d="M674.9043,416.418l-4.5449-4.545.58-.58.7382.5644a2.8532,2.8532,0,0,1,.1319-1.2148,2.6784,2.6784,0,0,1,.667-1.0772,2.0545,2.0545,0,0,1,1.6054-.7236,2.9087,2.9087,0,0,1,1.7344.9805l2.8418,2.8418-.6914.6923q-2.7348-2.7348-2.9336-2.9248a1.9928,1.9928,0,0,0-1.084-.6152,1.249,1.249,0,0,0-.9961.457,2.11,2.11,0,0,0-.6338,1.1485,1.6546,1.6546,0,0,0,.2032,1.1308,6.1292,6.1292,0,0,0,.5966.68l2.4864,2.4864Z"></path><path class="d" d="M680.9746,410.3486l-6.3066-2.7841.7422-.7422,3.7041,1.6992,1.5664.7373q-.3033-.5845-.7549-1.5322-.5668-1.1984-1.7315-3.6885l.7373-.7373,2.7969,6.2939Z"></path><path class="d" d="M686.0459,405.4678a2.8288,2.8288,0,0,1-2.19.9306,3.5042,3.5042,0,0,1-2.293-1.1543,3.642,3.642,0,0,1-1.1621-2.2636,2.5969,2.5969,0,0,1,.7812-2.12,2.3691,2.3691,0,0,1,1.918-.7627,3.2437,3.2437,0,0,1,2.0391,1.0488c.0332.0332.0927.0947.18.1846s.15.1533.1884.1923l-3.12,3.1192a2.5376,2.5376,0,0,0,1.6084.8086,1.8789,1.8789,0,0,0,1.4756-.6094,4.3788,4.3788,0,0,0,1.0645-1.8262l.6669.4512A4.1971,4.1971,0,0,1,686.0459,405.4678Zm-3.1025-4.499a1.4588,1.4588,0,0,0-1.1983.4716,1.5707,1.5707,0,0,0-.4912,1.2412,2.4312,2.4312,0,0,0,.6318,1.419l2.3995-2.3994A2.2327,2.2327,0,0,0,682.9434,400.9688Z"></path><path class="d" d="M686.07,396.08a2.9378,2.9378,0,0,1,.3652-.3155l.6133.6631a2.7384,2.7384,0,0,0-.3652.2979,1.704,1.704,0,0,0-.5381,1.3467,2.0385,2.0385,0,0,0,.6377,1.3632l2.5527,2.5528-.6923.6914q-4.188-4.1807-4.55-4.541l.5761-.5762.8828.75a2.7383,2.7383,0,0,1-.0214-1.2227A1.9811,1.9811,0,0,1,686.07,396.08Z"></path><path class="d" d="M694.3945,401.0879l-.6875-.5625.8448-.8457a4.57,4.57,0,0,0,.5634-.6631,1.69,1.69,0,0,0,.2715-.5986,1.6249,1.6249,0,0,0,.0293-.5342,1.3865,1.3865,0,0,0-.1972-.5244,4.0451,4.0451,0,0,0-.3643-.5137c-.1328-.1572-.3037-.3418-.5137-.5508l-.4013-.4023a2.6394,2.6394,0,0,1-.0274,1.125,2.2918,2.2918,0,0,1-.6406,1.0254,2.6564,2.6564,0,0,1-.8535.584,2.3646,2.3646,0,0,1-.9131.1972,3.0867,3.0867,0,0,1-.9033-.1328,3.3925,3.3925,0,0,1-.8418-.3769,3.9789,3.9789,0,0,1-.7061-.5616,4.6946,4.6946,0,0,1-.7978-1.042,3.4485,3.4485,0,0,1-.3916-1.1162,2.3517,2.3517,0,0,1,.1123-1.1523,2.8778,2.8778,0,0,1,.7089-1.085,2.368,2.368,0,0,1,.9522-.6094,2.4929,2.4929,0,0,1,1.1269-.07l-.6044-.6054.6748-.6748,4.2177,4.2177c.1934.1934.3575.3672.4942.5215a5.1147,5.1147,0,0,1,.4111.5537,2.7378,2.7378,0,0,1,.3057.6065,2.56,2.56,0,0,1,.1152.6513,1.9,1.9,0,0,1-.1.7207,3.562,3.562,0,0,1-.3975.7832,5.4409,5.4409,0,0,1-.7216.87Zm-1.6074-3.7363a2.0441,2.0441,0,0,0,.4922-.7422,1.4273,1.4273,0,0,0,.0713-.7578,2.2862,2.2862,0,0,0-.2676-.711,3.1932,3.1932,0,0,0-.5166-.66l-.335-.336a3.3312,3.3312,0,0,0-.6855-.5361,2.1849,2.1849,0,0,0-.7314-.2715,1.4846,1.4846,0,0,0-.76.0674,1.9622,1.9622,0,0,0-.7276.48,1.7453,1.7453,0,0,0-.413.6279,1.5691,1.5691,0,0,0-.1006.669,2.3926,2.3926,0,0,0,.1533.667,2.9818,2.9818,0,0,0,.3232.625,3.7546,3.7546,0,0,0,.4385.5312,3.2153,3.2153,0,0,0,.5274.4258,2.7644,2.7644,0,0,0,.6171.3027,2.2844,2.2844,0,0,0,.6524.1309,1.6172,1.6172,0,0,0,.6543-.1123A1.72,1.72,0,0,0,692.7871,397.3516Z"></path><path class="d" d="M698.55,392.9639a2.8241,2.8241,0,0,1-2.1894.93,3.5049,3.5049,0,0,1-2.294-1.1534,3.6492,3.6492,0,0,1-1.1621-2.2636,2.5981,2.5981,0,0,1,.7812-2.12,2.3693,2.3693,0,0,1,1.918-.7626,3.2437,3.2437,0,0,1,2.0391,1.0488c.0332.0332.0937.0937.18.1836.0879.09.15.1543.1894.1933l-3.1211,3.1192a2.5376,2.5376,0,0,0,1.6084.8086,1.8789,1.8789,0,0,0,1.4756-.6094,4.3664,4.3664,0,0,0,1.0645-1.8272l.667.4522A4.1959,4.1959,0,0,1,698.55,392.9639Zm-3.1025-4.4991a1.4594,1.4594,0,0,0-1.1983.4717,1.5707,1.5707,0,0,0-.4912,1.2412,2.4394,2.4394,0,0,0,.6328,1.418l2.3985-2.3984A2.2177,2.2177,0,0,0,695.4473,388.4648Z"></path><path class="d" d="M442.0029,397.86a4.1815,4.1815,0,0,1-3.1328,1.4335,4.7411,4.7411,0,0,1-3.1572-1.582l-1.8184-1.8193,6.127-6.128,1.6992,1.6993a6.7659,6.7659,0,0,1,1.1914,1.5507,4.1962,4.1962,0,0,1,.5039,1.5977,3.3191,3.3191,0,0,1-.2754,1.6387A5.199,5.199,0,0,1,442.0029,397.86Zm-.7881-.7452a3.3485,3.3485,0,0,0,1.2061-2.5322,4.0038,4.0038,0,0,0-1.3467-2.5146l-.9609-.962-4.877,4.877,1.0821,1.082a3.6,3.6,0,0,0,2.4531,1.2305A3.4081,3.4081,0,0,0,441.2148,397.1152Z"></path><path class="d" d="M445.3506,398.2588l-4.5459,4.5449-.6953-.6963,4.5449-4.5459Zm1.6533-1.6533-.82.82-.6973-.6963.82-.82Z"></path><path class="d" d="M443.2705,405.2686l2.7842-6.3067.7422.7422-1.6992,3.7051-.7383,1.5654q.5859-.3018,1.5332-.7539,1.1982-.5668,3.6875-1.7324l.7383.7373-6.294,2.7969Z"></path><path class="d" d="M448.15,410.34a2.8287,2.8287,0,0,1-.93-2.1894,3.5066,3.5066,0,0,1,1.1543-2.294,3.6406,3.6406,0,0,1,2.2637-1.1611,2.5931,2.5931,0,0,1,2.1191.78,2.3626,2.3626,0,0,1,.7627,1.918,3.2475,3.2475,0,0,1-1.0478,2.039c-.0332.0332-.0948.0938-.1846.18-.09.0879-.1533.15-.1924.19l-3.1191-3.12a2.5287,2.5287,0,0,0-.8086,1.6075,1.8759,1.8759,0,0,0,.6084,1.4755,4.3779,4.3779,0,0,0,1.8271,1.0645l-.4512.667A4.1969,4.1969,0,0,1,448.15,410.34Zm4.5-3.1025a1.4579,1.4579,0,0,0-.4727-1.1982,1.57,1.57,0,0,0-1.24-.4912,2.4385,2.4385,0,0,0-1.4189.6328l2.3994,2.3984A2.228,2.228,0,0,0,452.65,407.2373Z"></path><path class="d" d="M457.5391,410.3652a2.943,2.943,0,0,1,.3154.3643l-.6631.6133a2.8359,2.8359,0,0,0-.2978-.3653,1.7051,1.7051,0,0,0-1.3467-.538,2.0406,2.0406,0,0,0-1.3633.6376l-2.5527,2.5528-.6914-.6914q4.1807-4.1895,4.541-4.5508l.5761.5762-.75.8828a2.7381,2.7381,0,0,1,1.2227-.0205A1.9814,1.9814,0,0,1,457.5391,410.3652Z"></path><path class="d" d="M452.5313,418.6885l.5625-.6875.8457.8457a4.6571,4.6571,0,0,0,.6621.5625,1.6881,1.6881,0,0,0,.6.2715,1.595,1.595,0,0,0,.5332.0293,1.3748,1.3748,0,0,0,.5254-.1973,3.85,3.85,0,0,0,.5136-.3643c.1573-.1318.3409-.3037.5508-.5136l.4014-.4014a2.6211,2.6211,0,0,1-1.124-.0273,2.2836,2.2836,0,0,1-1.0254-.6407,2.6606,2.6606,0,0,1-.585-.8535,2.3814,2.3814,0,0,1-.1963-.9131,3.0934,3.0934,0,0,1,.1328-.9033,3.3912,3.3912,0,0,1,.377-.8408,3.9358,3.9358,0,0,1,.56-.707,4.6893,4.6893,0,0,1,1.043-.7969,3.4059,3.4059,0,0,1,1.1162-.3916,2.3357,2.3357,0,0,1,1.1514.1113,2.8862,2.8862,0,0,1,1.0859.709,2.3731,2.3731,0,0,1,.6094.9531,2.4909,2.4909,0,0,1,.07,1.127l.6055-.6055.6748.6758-4.2178,4.2178c-.1934.1923-.3672.3574-.5225.4931a5.1047,5.1047,0,0,1-.5527.4121,2.7123,2.7123,0,0,1-.6074.3047,2.5442,2.5442,0,0,1-.65.1153,1.9021,1.9021,0,0,1-.7207-.1,3.5574,3.5574,0,0,1-.7832-.3964,5.5009,5.5009,0,0,1-.87-.7217Zm3.7363-1.6074a2.0379,2.0379,0,0,0,.7422.4931,1.4157,1.4157,0,0,0,.7578.07,2.2583,2.2583,0,0,0,.7109-.2675,3.2119,3.2119,0,0,0,.66-.5157l.3359-.3349a3.3317,3.3317,0,0,0,.5361-.6856,2.2138,2.2138,0,0,0,.2715-.7324,1.4942,1.4942,0,0,0-.0674-.76,1.9524,1.9524,0,0,0-.4794-.7265,1.7338,1.7338,0,0,0-.628-.4131,1.5534,1.5534,0,0,0-.6689-.1006,2.3537,2.3537,0,0,0-.667.1523,2.9529,2.9529,0,0,0-.625.3233,3.701,3.701,0,0,0-.5313.4394,3.2125,3.2125,0,0,0-.4257.5264,2.8107,2.8107,0,0,0-.3028.6172,2.25,2.25,0,0,0-.1308.6523,1.6079,1.6079,0,0,0,.1123.6543A1.7179,1.7179,0,0,0,456.2676,417.0811Z"></path><path class="d" d="M460.6553,422.8447a2.83,2.83,0,0,1-.9307-2.19,3.5068,3.5068,0,0,1,1.1543-2.293,3.6447,3.6447,0,0,1,2.2637-1.1621,2.5983,2.5983,0,0,1,2.12.78,2.3707,2.3707,0,0,1,.7627,1.9189,3.24,3.24,0,0,1-1.0488,2.0381c-.0332.0332-.0938.0938-.1836.1807s-.1543.1494-.1934.1885l-3.1191-3.12a2.5353,2.5353,0,0,0-.8086,1.6084,1.8756,1.8756,0,0,0,.6094,1.4747,4.3687,4.3687,0,0,0,1.8261,1.0644l-.4511.668A4.1981,4.1981,0,0,1,460.6553,422.8447Zm4.499-3.1035a1.4572,1.4572,0,0,0-.4717-1.1973,1.5677,1.5677,0,0,0-1.2412-.4912,2.4348,2.4348,0,0,0-1.418.6319l2.3985,2.3984A2.2123,2.2123,0,0,0,465.1543,419.7412Z"></path><line class="k" x1="492.2543" y1="434.2543" x2="417.6569" y2="359.6569"></line><polygon class="n" points="495.247 428.786 498.344 440.343 486.786 437.247 495.247 428.786"></polygon><line class="k" x1="629.6569" y1="440.3431" x2="704.2543" y2="365.7457"></line><polygon class="n" points="707.247 371.214 710.344 359.657 698.786 362.753 707.247 371.214"></polygon><path class="d" d="M198.0684,92.5273a6.4643,6.4643,0,0,0,2.9.668q1.9043,0,1.9042-1.7344a1.3423,1.3423,0,0,0-.3017-.9111,2.1215,2.1215,0,0,0-1.0986-.5478l-1.7227-.4336q-1.9746-.4981-1.9746-2.1094a2.0977,2.0977,0,0,1,.85-1.8369,4.0137,4.0137,0,0,1,2.35-.6006,6.0979,6.0979,0,0,1,1.4707.17,4.0033,4.0033,0,0,1,1.1485.457l-.293.8262a4.6087,4.6087,0,0,0-1.04-.3867,5.1368,5.1368,0,0,0-1.31-.17q-2.1211,0-2.1211,1.4707a1.0393,1.0393,0,0,0,.3252.8,2.1753,2.1753,0,0,0,.9756.46l1.6464.3985a3.253,3.253,0,0,1,1.6.8056,2.149,2.149,0,0,1,.5449,1.5733,2.4392,2.4392,0,0,1-.8115,1.9951,3.3584,3.3584,0,0,1-2.2061.6709,7.2983,7.2983,0,0,1-1.8545-.2139,4.819,4.819,0,0,1-1.2861-.5068Z"></path><path class="d" d="M207.291,94.0742a1.6978,1.6978,0,0,1-1.3476-.4629,2.357,2.357,0,0,1-.4219-1.4941V88.2559h-.9551l.041-.6446.9082-.082.334-1.4707.6445-.0234v1.4941h1.7872v.7266h-1.7872v3.6855a1.7845,1.7845,0,0,0,.2227,1.0313.89.89,0,0,0,.7617.2988,7.6653,7.6653,0,0,0,.8379-.0938l.041.7735A6.6507,6.6507,0,0,1,207.291,94.0742Z"></path><path class="d" d="M212.2832,87.4707a3.0072,3.0072,0,0,1,.4805.0352l-.0352.9023a2.7915,2.7915,0,0,0-.4687-.0469,1.7076,1.7076,0,0,0-1.333.5713,2.041,2.041,0,0,0-.5127,1.4151V93.957h-.9786q-.0058-5.9179-.0058-6.4277h.8144l.0938,1.1543a2.7288,2.7288,0,0,1,.85-.8789A1.9811,1.9811,0,0,1,212.2832,87.4707Z"></path><path class="d" d="M217.6445,93.957q-.0879-.375-.17-.8086a3.4227,3.4227,0,0,1-1.0019.7383,2.7313,2.7313,0,0,1-1.1016.2051,2.1449,2.1449,0,0,1-1.45-.4717,1.6922,1.6922,0,0,1-.5479-1.3564,1.6078,1.6078,0,0,1,.7471-1.459,4.7977,4.7977,0,0,1,2.1533-.5918q.1933-.0176.583-.05t.5831-.05v-.5684a1.4044,1.4044,0,0,0-.3165-1.0078,1.33,1.33,0,0,0-.996-.3281,4.3643,4.3643,0,0,0-1.9161.4687q-.0293-.07-.1523-.4072t-.1289-.3486a4.0105,4.0105,0,0,1,1.0166-.3838,5.0413,5.0413,0,0,1,1.1982-.1436,2.3972,2.3972,0,0,1,1.7315.5244,2.4538,2.4538,0,0,1,.53,1.7842V93.957Zm-2.1269-.6562a2.0386,2.0386,0,0,0,1.2275-.3838,1.7184,1.7184,0,0,0,.6826-1.0342v-1.084q-.0292,0-.3545.0293t-.4248.0352a4.4275,4.4275,0,0,0-1.7724.416,1.0588,1.0588,0,0,0-.501.9785.9746.9746,0,0,0,.3047.7793A1.238,1.238,0,0,0,215.5176,93.3008Z"></path><path class="d" d="M222.1445,94.0742a1.6978,1.6978,0,0,1-1.3476-.4629,2.3576,2.3576,0,0,1-.4219-1.4941V88.2559H219.42l.041-.6446.9082-.082.334-1.4707.6446-.0234v1.4941h1.7871v.7266h-1.7871v3.6855a1.7846,1.7846,0,0,0,.2226,1.0313.89.89,0,0,0,.7617.2988,7.6653,7.6653,0,0,0,.8379-.0938l.041.7735A6.6507,6.6507,0,0,1,222.1445,94.0742Z"></path><path class="d" d="M226.9082,94.0918a2.8253,2.8253,0,0,1-2.2061-.8906,3.4991,3.4991,0,0,1-.8056-2.4375,3.6429,3.6429,0,0,1,.7793-2.4229,2.5969,2.5969,0,0,1,2.0508-.9463,2.3671,2.3671,0,0,1,1.8955.8174,3.2406,3.2406,0,0,1,.7,2.1826q0,.07-.003.2578t-.0029.27h-4.4121a2.5366,2.5366,0,0,0,.5654,1.708,1.8791,1.8791,0,0,0,1.4737.6123,4.3624,4.3624,0,0,0,2.0449-.5391l.1523.791A4.1957,4.1957,0,0,1,226.9082,94.0918Zm.9873-5.376a1.46,1.46,0,0,0-1.1807-.5127,1.5681,1.5681,0,0,0-1.2246.53,2.4353,2.4353,0,0,0-.5566,1.45h3.3926A2.2227,2.2227,0,0,0,227.8955,88.7158Z"></path><path class="d" d="M231.6719,96.8984l-.0879-.8847h1.1953a4.6954,4.6954,0,0,0,.8672-.07,1.6931,1.6931,0,0,0,.6152-.2315,1.6209,1.6209,0,0,0,.3985-.3574,1.37,1.37,0,0,0,.2314-.51,3.9026,3.9026,0,0,0,.1055-.6211q.0263-.3075.0263-.7529v-.5684a2.6161,2.6161,0,0,1-.8144.7764,2.2945,2.2945,0,0,1-1.1777.2725,2.6609,2.6609,0,0,1-1.0167-.1905,2.378,2.378,0,0,1-.7851-.5068,3.11,3.11,0,0,1-.5449-.7324,3.4055,3.4055,0,0,1-.3282-.8613,3.9864,3.9864,0,0,1-.1025-.8965,4.6637,4.6637,0,0,1,.1729-1.3008,3.4158,3.4158,0,0,1,.5127-1.0664,2.33,2.33,0,0,1,.8935-.7354,2.89,2.89,0,0,1,1.2686-.2666,2.38,2.38,0,0,1,1.1045.2432,2.4842,2.4842,0,0,1,.8466.7471v-.8555h.9551v5.9648q0,.41-.02.7178a4.9316,4.9316,0,0,1-.1.6826,2.6774,2.6774,0,0,1-.2139.6446,2.507,2.507,0,0,1-.3779.542,1.9,1.9,0,0,1-.58.4394,3.5491,3.5491,0,0,1-.8349.2725,5.4561,5.4561,0,0,1-1.125.1054Zm1.5058-3.7793a2.0383,2.0383,0,0,0,.8731-.1757,1.4152,1.4152,0,0,0,.5859-.4864,2.2724,2.2724,0,0,0,.3135-.6914,3.1919,3.1919,0,0,0,.1025-.832V90.459a3.349,3.349,0,0,0-.1054-.8643,2.22,2.22,0,0,0-.3252-.709,1.4849,1.4849,0,0,0-.586-.4892,1.9488,1.9488,0,0,0-.8525-.1758,1.74,1.74,0,0,0-.7354.1523,1.5725,1.5725,0,0,0-.5449.4014,2.3958,2.3958,0,0,0-.3633.58,2.9711,2.9711,0,0,0-.2138.6709,3.6689,3.6689,0,0,0-.0645.6855,3.268,3.268,0,0,0,.07.6739,2.8484,2.8484,0,0,0,.2227.65,2.2844,2.2844,0,0,0,.3691.5537,1.63,1.63,0,0,0,.542.3838A1.7141,1.7141,0,0,0,233.1777,93.1191Z"></path><path class="d" d="M236.8164,87.5293h1.0371l2.0274,5.35,1.8046-5.35h1.0372q-2.6016,7.16-2.69,7.3828a3.6143,3.6143,0,0,1-.9785,1.4854,2.3062,2.3062,0,0,1-1.5117.4716,3.9758,3.9758,0,0,1-.5918-.0468l-.0586-.8321q.3281.0235.4922.0235a1.73,1.73,0,0,0,1.0048-.2432,2.021,2.021,0,0,0,.6124-.9111q.24-.6153.3574-.9492Z"></path><path class="d" d="M538.7783,93.957V85.291h4.9688l-.041.8965H539.792v2.8359h3.7207v.8848H539.792v3.1523h4.043l-.0469.8965Z"></path><path class="d" d="M546.9932,90.6875l-2.2676-3.1582h1.1191l1.7168,2.4492,1.7227-2.4492h1.1191l-2.2734,3.17,2.332,3.2578h-1.084l-1.81-2.584-1.8106,2.584h-1.1191Z"></path><path class="d" d="M554.06,94.0918a2.8252,2.8252,0,0,1-2.2061-.8906,3.4991,3.4991,0,0,1-.8056-2.4375,3.6429,3.6429,0,0,1,.7792-2.4229,2.5972,2.5972,0,0,1,2.0508-.9463,2.367,2.367,0,0,1,1.8955.8174,3.2406,3.2406,0,0,1,.7,2.1826q0,.07-.0029.2578t-.0029.27h-4.4121a2.5366,2.5366,0,0,0,.5654,1.708,1.8788,1.8788,0,0,0,1.4736.6123,4.3618,4.3618,0,0,0,2.0449-.5391l.1524.791A4.196,4.196,0,0,1,554.06,94.0918Zm.9873-5.376a1.46,1.46,0,0,0-1.1807-.5127,1.5681,1.5681,0,0,0-1.2246.53,2.4347,2.4347,0,0,0-.5566,1.45h3.3925A2.2227,2.2227,0,0,0,555.0469,88.7158Z"></path><path class="d" d="M560.5518,94.0918a2.7835,2.7835,0,0,1-2.2178-.92,3.5387,3.5387,0,0,1-.8-2.4082,3.6021,3.6021,0,0,1,.8174-2.4346,2.7915,2.7915,0,0,1,2.2236-.9346,3.7559,3.7559,0,0,1,.9639.1231,2.17,2.17,0,0,1,.7353.3222l-.2695.7618a3.01,3.01,0,0,0-1.4473-.3692,1.7842,1.7842,0,0,0-1.4736.68,2.9006,2.9006,0,0,0-.542,1.8574,2.8348,2.8348,0,0,0,.5361,1.8194,1.7961,1.7961,0,0,0,1.4854.6709,3.3482,3.3482,0,0,0,1.5469-.41l.123.7793A2.8015,2.8015,0,0,1,560.5518,94.0918Z"></path><path class="d" d="M563.2822,91.8125V87.5293h.9844v4.2949a1.886,1.886,0,0,0,.12.7149,1.0142,1.0142,0,0,0,.3457.4541,1.4794,1.4794,0,0,0,.51.2314,2.7315,2.7315,0,0,0,.6533.07,1.8761,1.8761,0,0,0,1.1865-.334,1.3634,1.3634,0,0,0,.4248-1.1367V87.5293h.9844v4.2832a2.6136,2.6136,0,0,1-.1406.8848,1.9185,1.9185,0,0,1-.3779.6533,1.9754,1.9754,0,0,1-.5713.4307,2.7786,2.7786,0,0,1-.7061.246,4.22,4.22,0,0,1-1.5967,0,2.7464,2.7464,0,0,1-.7119-.249,2.0875,2.0875,0,0,1-.58-.4336,1.8652,1.8652,0,0,1-.3837-.6533A2.5917,2.5917,0,0,1,563.2822,91.8125Z"></path><path class="d" d="M572.001,94.0742a1.6981,1.6981,0,0,1-1.3477-.4629,2.3582,2.3582,0,0,1-.4219-1.4941V88.2559h-.955l.041-.6446.9082-.082.334-1.4707.6445-.0234v1.4941h1.7871v.7266h-1.7871v3.6855a1.7837,1.7837,0,0,0,.2227,1.0313.89.89,0,0,0,.7617.2988,7.6653,7.6653,0,0,0,.8379-.0938l.041.7735A6.6519,6.6519,0,0,1,572.001,94.0742Z"></path><path class="d" d="M575.2646,85.1914v1.16H574.28v-1.16Zm0,2.3379V93.957H574.28V87.5293Z"></path><path class="d" d="M582.7588,90.74a3.59,3.59,0,0,1-.7969,2.4229,2.7486,2.7486,0,0,1-2.2031.9287,2.6852,2.6852,0,0,1-2.1533-.9375,4.0461,4.0461,0,0,1,.0029-4.834,2.7634,2.7634,0,0,1,2.2031-.9258,2.68,2.68,0,0,1,2.1621.9287A3.6155,3.6155,0,0,1,582.7588,90.74Zm-4.9395.0176a3.0192,3.0192,0,0,0,.5069,1.8311,1.7224,1.7224,0,0,0,1.48.6884,1.6667,1.6667,0,0,0,1.45-.6855,3.7624,3.7624,0,0,0,.0058-3.7,1.92,1.92,0,0,0-2.9385.0147A3.0778,3.0778,0,0,0,577.8193,90.7578Z"></path><path class="d" d="M584.1416,93.957V87.5293h.82l.1231.92a2.8655,2.8655,0,0,1,.9521-.7646,2.6854,2.6854,0,0,1,1.2334-.29,2.0481,2.0481,0,0,1,1.6465.6241,2.9038,2.9038,0,0,1,.5332,1.9189V93.957h-.9785q0-3.8671-.0059-4.1425a1.9989,1.9989,0,0,0-.331-1.2012,1.2492,1.2492,0,0,0-1.0284-.3809,2.0983,2.0983,0,0,0-1.26.3633,1.6523,1.6523,0,0,0-.6563.9434,6.1807,6.1807,0,0,0-.0586.9023V93.957Z"></path><line class="o" x1="423" y1="104" x2="705" y2="104"></line><line class="k" x1="705" y1="99" x2="705" y2="109"></line><line class="k" x1="423" y1="99" x2="423" y2="109"></line><line class="p" x1="79" y1="104" x2="361" y2="104"></line><line class="q" x1="361" y1="99" x2="361" y2="109"></line><line class="q" x1="79" y1="99" x2="79" y2="109"></line><path class="d" d="M58.7886,42.8271V29.9512h3.7265a10.8775,10.8775,0,0,1,3.0235.3867,6.4709,6.4709,0,0,1,2.2983,1.1645,5.0206,5.0206,0,0,1,1.4766,2.0039,7.2814,7.2814,0,0,1,.5141,2.8345,6.11,6.11,0,0,1-1.8808,4.8032,7.5393,7.5393,0,0,1-5.2119,1.6831ZM61.17,40.92h1.7051a4.0458,4.0458,0,0,0,4.5088-4.5263,4.4516,4.4516,0,0,0-1.1865-3.45,5.1762,5.1762,0,0,0-3.5772-1.0766H61.17Z"></path><path class="d" d="M76.0151,43.0117A4.2775,4.2775,0,0,1,72.64,41.623a5.3091,5.3091,0,0,1-1.23-3.6562,5.2648,5.2648,0,0,1,1.23-3.687,4.4608,4.4608,0,0,1,3.4717-1.3491A4.3053,4.3053,0,0,1,79.5,34.3062a5.297,5.297,0,0,1,1.2261,3.6606,5.2678,5.2678,0,0,1-1.2393,3.6782A4.4475,4.4475,0,0,1,76.0151,43.0117Zm.0616-1.749a1.9958,1.9958,0,0,0,1.7578-.8525,4.2763,4.2763,0,0,0,.5888-2.4434,4.2689,4.2689,0,0,0-.5888-2.4522,2.2722,2.2722,0,0,0-3.5376.0044,4.2665,4.2665,0,0,0-.5933,2.4566,4.2087,4.2087,0,0,0,.5977,2.4346A2.027,2.027,0,0,0,76.0767,41.2627Z"></path><path class="d" d="M89.5767,42.0669a5.3415,5.3415,0,0,1-6.06.0044,3.3618,3.3618,0,0,1-1.147-2.76V33.168h2.3116v6.0556a2.2431,2.2431,0,0,0,.4526,1.5645,1.887,1.887,0,0,0,1.437.4834,1.8412,1.8412,0,0,0,1.4106-.479,2.2714,2.2714,0,0,0,.4439-1.5689V33.168H90.728v6.1435A3.3583,3.3583,0,0,1,89.5767,42.0669Z"></path><path class="d" d="M98.0054,43.0117a3.6979,3.6979,0,0,1-1.7886-.435,3.1166,3.1166,0,0,1-1.1646-.9888l-.2285,1.23H92.8286v-13.21l2.3027-.1494v2.9883q0,.87-.0527,1.9775a3.5787,3.5787,0,0,1,2.98-1.4941,3.4459,3.4459,0,0,1,2.896,1.3711,5.7369,5.7369,0,0,1,1.05,3.5859,5.9251,5.9251,0,0,1-1.0855,3.7134A3.4873,3.4873,0,0,1,98.0054,43.0117Zm-.5537-1.749a1.9169,1.9169,0,0,0,1.6435-.87,4.2365,4.2365,0,0,0,.6152-2.47,4.11,4.11,0,0,0-.602-2.4346,1.913,1.913,0,0,0-1.63-.8262q-2.3379,0-2.3642,3.1553a4.5851,4.5851,0,0,0,.5888,2.61A2.0011,2.0011,0,0,0,97.4517,41.2627Z"></path><path class="d" d="M107.269,42.959a4.9782,4.9782,0,0,1-1.6479-.2329,2.1411,2.1411,0,0,1-1.0327-.7427,3.0823,3.0823,0,0,1-.5274-1.2129,8.6,8.6,0,0,1-.1494-1.749V29.6084l2.3028-.1494v9.5185a3.47,3.47,0,0,0,.3076,1.7622,1.3394,1.3394,0,0,0,1.1953.4615,8.1955,8.1955,0,0,0,1.1162-.0967l.0615,1.6435q-.0087,0-.2153.044t-.3955.0747q-.189.0307-.479.0615A5.1126,5.1126,0,0,1,107.269,42.959Z"></path><path class="d" d="M114.45,43.0117a4.8091,4.8091,0,0,1-3.6255-1.34,5.1057,5.1057,0,0,1-1.2964-3.7046,5.2857,5.2857,0,0,1,1.2217-3.665,4.2736,4.2736,0,0,1,3.3311-1.3711,3.9177,3.9177,0,0,1,3.0981,1.248,4.82,4.82,0,0,1,1.103,3.3135q0,.1494-.0044.4834t-.0044.4922h-6.4248a3.04,3.04,0,0,0,.7427,2.0962,2.5607,2.5607,0,0,0,1.9468.7426,6.0873,6.0873,0,0,0,3.041-.8261l.3252,1.6347A6.4381,6.4381,0,0,1,114.45,43.0117Zm-2.5576-5.9941h4.2187a2.7254,2.7254,0,0,0-.5361-1.8106,1.8421,1.8421,0,0,0-1.4853-.6328,2.03,2.03,0,0,0-1.4986.6153A2.7933,2.7933,0,0,0,111.8921,37.0176Z"></path><path class="d" d="M125.1372,42.8271V29.9512h3.7266a10.8763,10.8763,0,0,1,3.0234.3867,6.4709,6.4709,0,0,1,2.2983,1.1645,5.0206,5.0206,0,0,1,1.4766,2.0039,7.2814,7.2814,0,0,1,.5142,2.8345,6.11,6.11,0,0,1-1.8809,4.8032,7.5393,7.5393,0,0,1-5.2119,1.6831ZM127.519,40.92h1.7051a4.0458,4.0458,0,0,0,4.5088-4.5263,4.4516,4.4516,0,0,0-1.1865-3.45,5.176,5.176,0,0,0-3.5772-1.0766h-1.45Z"></path><path class="d" d="M138.2681,31.7617V29.793H140.58v1.9687Zm0,11.0654V33.168h2.3027v9.6591Z"></path><path class="d" d="M145.519,43.0117a3.14,3.14,0,0,1-2.1752-.7427,2.7211,2.7211,0,0,1-.8306-2.14,2.5849,2.5849,0,0,1,.9844-2.228,6.0168,6.0168,0,0,1,2.9707-.9185q.2724-.0351.5888-.07t.7119-.07q.3956-.0351.6241-.0615v-.51a1.7393,1.7393,0,0,0-.4043-1.2788,1.6854,1.6854,0,0,0-1.2305-.4,8.5,8.5,0,0,0-2.9092.6592q-.0087-.0264-.29-.8t-.29-.791a9.2843,9.2843,0,0,1,3.6914-.73,4.0063,4.0063,0,0,1,2.8389.8481,3.6617,3.6617,0,0,1,.8877,2.7466v6.3017h-1.7051q-.0087-.0351-.1933-.5888t-.1846-.5889a5.4044,5.4044,0,0,1-1.4106,1.0327A3.86,3.86,0,0,1,145.519,43.0117Zm.6241-1.6347a2.5145,2.5145,0,0,0,1.393-.3824,2.2377,2.2377,0,0,0,.8482-.9272V38.2041q-.0264,0-.4614.0352t-.47.0351a4.8169,4.8169,0,0,0-2.0478.5274,1.416,1.416,0,0,0-.65,1.3007,1.2161,1.2161,0,0,0,.36.9449A1.4708,1.4708,0,0,0,146.1431,41.377Z"></path><path class="d" d="M153.0073,42.8271V33.168h1.8633l.2637,1.23q.1758-.22.3384-.3911a3.6975,3.6975,0,0,1,.4482-.3867,3.0229,3.0229,0,0,1,.6064-.356,4.0041,4.0041,0,0,1,.7911-.2373,4.9959,4.9959,0,0,1,1.0063-.0966,3.24,3.24,0,0,1,1.8413.4658,2.64,2.64,0,0,1,.9712,1.09,3.4611,3.4611,0,0,1,1.3447-1.1513,4.1219,4.1219,0,0,1,1.8369-.4043,2.9853,2.9853,0,0,1,2.439.94,4.2866,4.2866,0,0,1,.7778,2.7861v6.17h-2.3115V37.3428a4.9027,4.9027,0,0,0-.312-2.0435,1.2023,1.2023,0,0,0-1.1909-.6284,2.0014,2.0014,0,0,0-1.9336,1.2129,4.2847,4.2847,0,0,0-.334,1.292v5.6513h-2.3027v-5.59a4.1825,4.1825,0,0,0-.3428-1.9248,1.2837,1.2837,0,0,0-1.2393-.6328,2.1357,2.1357,0,0,0-1.2568.3691,2.3438,2.3438,0,0,0-.8.9668,9.7026,9.7026,0,0,0-.2021,2.127v4.6845Z"></path><path class="d" d="M173.9517,43.0117a4.2775,4.2775,0,0,1-3.375-1.3887,5.3086,5.3086,0,0,1-1.23-3.6562,5.2644,5.2644,0,0,1,1.23-3.687,4.4606,4.4606,0,0,1,3.4716-1.3491,4.3053,4.3053,0,0,1,3.3882,1.3755,5.297,5.297,0,0,1,1.2261,3.6606,5.2678,5.2678,0,0,1-1.2393,3.6782A4.4473,4.4473,0,0,1,173.9517,43.0117Zm.0615-1.749a1.9958,1.9958,0,0,0,1.7578-.8525,4.2763,4.2763,0,0,0,.5889-2.4434,4.2688,4.2688,0,0,0-.5889-2.4522,2.2722,2.2722,0,0,0-3.5376.0044,4.2665,4.2665,0,0,0-.5933,2.4566,4.21,4.21,0,0,0,.5977,2.4346A2.027,2.027,0,0,0,174.0132,41.2627Z"></path><path class="d" d="M180.5435,42.8271V33.168h1.8544l.2549,1.2216a4.5706,4.5706,0,0,1,3.2784-1.4589,3.1589,3.1589,0,0,1,2.5268.9712,4.19,4.19,0,0,1,.8394,2.8169v6.1083h-2.3116V37a3.3549,3.3549,0,0,0-.3779-1.749,1.45,1.45,0,0,0-1.3271-.58,2.5515,2.5515,0,0,0-1.3667.3823,2.3191,2.3191,0,0,0-.9009.9624,9.703,9.703,0,0,0-.167,2.1094v4.7021Z"></path><path class="d" d="M195.16,43.0117a3.5581,3.5581,0,0,1-2.9707-1.3887,5.877,5.877,0,0,1-1.0811-3.7089,5.6789,5.6789,0,0,1,1.0767-3.6167,3.5678,3.5678,0,0,1,2.9663-1.3667A3.0924,3.0924,0,0,1,198.06,34.39a16.3715,16.3715,0,0,1-.0879-1.6611v-3.12l2.3027-.1494V42.8271H198.28l-.2549-1.3183q-.1494.2373-.2769.4087a2.9227,2.9227,0,0,1-.3735.3955,2.185,2.185,0,0,1-.5317.36,3.5683,3.5683,0,0,1-.7207.2373A4.2564,4.2564,0,0,1,195.16,43.0117Zm.5449-1.749q2.32,0,2.3555-3.1553a4.4615,4.4615,0,0,0-.5977-2.6015,2.0675,2.0675,0,0,0-1.7842-.8174,1.9635,1.9635,0,0,0-1.6567.8305,4.06,4.06,0,0,0-.62,2.4478,4.1043,4.1043,0,0,0,.62,2.4521A1.9786,1.9786,0,0,0,195.7046,41.2627Z"></path><path class="d" d="M207.5435,42.8271V29.916h4.289a7.6735,7.6735,0,0,1,2.6016.3911,3.5107,3.5107,0,0,1,1.7095,1.27,3.6983,3.6983,0,0,1,.6284,2.2061,5.2068,5.2068,0,0,1-.2373,1.6392,3.3436,3.3436,0,0,1-2.3159,2.2016,7.8856,7.8856,0,0,1-2.3863.3164q-1.1954,0-1.9424-.07v4.957Zm4.0341-6.6093a5.0793,5.0793,0,0,0,1.27-.1407,2.5294,2.5294,0,0,0,.8437-.36,1.6568,1.6568,0,0,0,.4834-.5449,2.1116,2.1116,0,0,0,.2373-.6284,3.6959,3.6959,0,0,0,.0571-.6812,1.9567,1.9567,0,0,0-.6855-1.6172,3.0038,3.0038,0,0,0-1.9336-.5537h-1.96V36.2Q209.9956,36.2177,211.5776,36.2178Z"></path><path class="d" d="M218.3364,42.8271V33.168H220.27l.2988,1.4765a3.0521,3.0521,0,0,1,2.751-1.52,4.3434,4.3434,0,0,1,.6153.0352L223.9,35.084a4.9076,4.9076,0,0,0-.73-.0527,2.4748,2.4748,0,0,0-1.9028.6767,2.658,2.658,0,0,0-.6284,1.8809v5.2382Z"></path><path class="d" d="M229.4019,43.0117a4.2775,4.2775,0,0,1-3.375-1.3887,5.3086,5.3086,0,0,1-1.2305-3.6562,5.2644,5.2644,0,0,1,1.2305-3.687,4.4606,4.4606,0,0,1,3.4716-1.3491,4.3053,4.3053,0,0,1,3.3882,1.3755,5.297,5.297,0,0,1,1.2261,3.6606,5.2678,5.2678,0,0,1-1.2393,3.6782A4.4473,4.4473,0,0,1,229.4019,43.0117Zm.0615-1.749a1.9958,1.9958,0,0,0,1.7578-.8525,4.2763,4.2763,0,0,0,.5889-2.4434,4.2688,4.2688,0,0,0-.5889-2.4522,2.2722,2.2722,0,0,0-3.5376.0044,4.2665,4.2665,0,0,0-.5933,2.4566,4.21,4.21,0,0,0,.5977,2.4346A2.027,2.027,0,0,0,229.4634,41.2627Z"></path><path class="d" d="M240.2212,43.0117a4.4956,4.4956,0,0,1-3.45-1.3183,5.3105,5.3105,0,0,1-1.2349-3.77A5.0093,5.0093,0,0,1,236.833,34.24a4.5912,4.5912,0,0,1,3.4146-1.3095,5.31,5.31,0,0,1,2.8652.73l-.5449,1.6435a4.8454,4.8454,0,0,0-2.2237-.624,2.2363,2.2363,0,0,0-1.8413.8349,3.809,3.809,0,0,0-.6723,2.4346,3.9173,3.9173,0,0,0,.6635,2.461,2.2493,2.2493,0,0,0,1.8765.8437,4.4566,4.4566,0,0,0,2.4346-.7471l.22,1.7491a4.2657,4.2657,0,0,1-1.2568.58A5.98,5.98,0,0,1,240.2212,43.0117Z"></path><path class="d" d="M249.2476,43.0117a4.8088,4.8088,0,0,1-3.6255-1.34,5.1053,5.1053,0,0,1-1.2964-3.7046,5.2852,5.2852,0,0,1,1.2217-3.665,4.2734,4.2734,0,0,1,3.331-1.3711,3.9179,3.9179,0,0,1,3.0982,1.248,4.8206,4.8206,0,0,1,1.103,3.3135q0,.1494-.0044.4834t-.0044.4922H246.646a3.0393,3.0393,0,0,0,.7427,2.0962,2.5606,2.5606,0,0,0,1.9467.7426,6.0879,6.0879,0,0,0,3.0411-.8261l.3252,1.6347A6.4381,6.4381,0,0,1,249.2476,43.0117ZM246.69,37.0176h4.2188a2.7254,2.7254,0,0,0-.5361-1.8106,1.8424,1.8424,0,0,0-1.4854-.6328,2.03,2.03,0,0,0-1.4985.6153A2.7928,2.7928,0,0,0,246.69,37.0176Z"></path><path class="d" d="M258.0366,43.0029a6.903,6.903,0,0,1-3.4189-.7295l.2373-1.7314a7.1218,7.1218,0,0,0,1.4765.5669,6.1225,6.1225,0,0,0,1.6348.2505,2.1233,2.1233,0,0,0,1.1909-.2857.9659.9659,0,0,0,.4351-.8393.9253.9253,0,0,0-.4-.791,7.4573,7.4573,0,0,0-1.5249-.7207q-.3867-.1407-.501-.1846a5.16,5.16,0,0,1-1.9248-1.1558,2.445,2.445,0,0,1-.5889-1.727,2.3589,2.3589,0,0,1,.9536-2.0215,4.4053,4.4053,0,0,1,2.6587-.7031,7.2,7.2,0,0,1,3.2432.6943l-.5713,1.5908a6.2384,6.2384,0,0,0-2.6279-.6416,2.1272,2.1272,0,0,0-1.0855.2329.7689.7689,0,0,0-.3911.7075.7932.7932,0,0,0,.3779.6988,8.2066,8.2066,0,0,0,1.4766.6548q.0351.0087.2285.0791t.2989.1142a4.9407,4.9407,0,0,1,1.9511,1.1558,2.4748,2.4748,0,0,1,.6241,1.7534,2.744,2.744,0,0,1-.9844,2.2412A4.2922,4.2922,0,0,1,258.0366,43.0029Z"></path><path class="d" d="M266.6938,43.0029a6.9032,6.9032,0,0,1-3.4189-.7295l.2373-1.7314a7.1207,7.1207,0,0,0,1.4766.5669,6.1212,6.1212,0,0,0,1.6347.2505,2.1236,2.1236,0,0,0,1.191-.2857.9658.9658,0,0,0,.435-.8393.9253.9253,0,0,0-.4-.791,7.4573,7.4573,0,0,0-1.5249-.7207q-.3867-.1407-.501-.1846a5.16,5.16,0,0,1-1.9248-1.1558,2.445,2.445,0,0,1-.5888-1.727,2.3587,2.3587,0,0,1,.9536-2.0215,4.4049,4.4049,0,0,1,2.6587-.7031,7.2,7.2,0,0,1,3.2431.6943l-.5713,1.5908a6.2384,6.2384,0,0,0-2.6279-.6416,2.1266,2.1266,0,0,0-1.0854.2329.7688.7688,0,0,0-.3912.7075.7931.7931,0,0,0,.378.6988,8.2012,8.2012,0,0,0,1.4765.6548q.0353.0087.2286.0791t.2988.1142a4.9419,4.9419,0,0,1,1.9512,1.1558,2.4747,2.4747,0,0,1,.624,1.7534,2.744,2.744,0,0,1-.9844,2.2412A4.292,4.292,0,0,1,266.6938,43.0029Z"></path><path class="r" d="M47.24,28.9344a5.4627,5.4627,0,0,0-4.2234-4.1983,34.7181,34.7181,0,0,0-4.9468-.6705l-1.2591-.055Q36.39,24,35.9693,24a34.0593,34.0593,0,0,0-6.9956.73,5.4624,5.4624,0,0,0-4.2209,4.1971,33.8315,33.8315,0,0,0-.6126,3.9712L24,36.2174q.004.4745.022.95c2.2491.2392,6.5137-.5624,10.69-3.4054-2.127-.5305-2.81-1.0749-2.84-1.6981q-.03-.6231,1.7885-1.0181l8.5448-1.3062q-1.0882,7.5708-1.291,8.56c-.2029.989-.5272,1.9269-1.1147,1.7874s-1.251-.9741-1.6763-2.9132a19.1282,19.1282,0,0,0-3.4478,10.6913l.0045.11Q35.3271,48,35.9735,48a33.3739,33.3739,0,0,0,7.0632-.7648,5.4629,5.4629,0,0,0,4.1871-4.1915,34.0758,34.0758,0,0,0,.7027-5.0952l.0343-.7811.0158-.365q.0115-.4358.0116-.8716A33.1767,33.1767,0,0,0,47.24,28.9344ZM31.5016,40.4565a21.5093,21.5093,0,0,0-1.1466,7.0568q-.7013-.1213-1.4022-.273a5.4622,5.4622,0,0,1-4.1849-4.19q-.1677-.78-.2984-1.5577A24.5357,24.5357,0,0,0,31.5016,40.4565Z"></path></svg> 