<svg width="286" height="47" viewBox="0 0 286 47" fill="none" xmlns="http://www.w3.org/2000/svg">
<g clip-path="url(#clip0_17_2)">
<rect width="286" height="47" fill="white"/>
<path d="M60.3898 4.7H67.8138C70.9748 4.7 73.4688 5.628 75.3538 7.513C77.2388 9.369 78.1958 11.805 78.1958 14.85C78.1958 17.895 77.2388 20.36 75.3538 22.216C73.4688 24.072 70.9748 25 67.8138 25H60.3898V4.7ZM67.8138 7.745H63.6378V21.955H67.8138C72.2218 21.955 74.8608 19.345 74.8608 14.85C74.8608 10.355 72.2508 7.745 67.8138 7.745ZM82.5298 12.153C83.9508 10.732 85.7488 10.007 87.9528 10.007C90.1568 10.007 91.9548 10.732 93.3758 12.153C94.7968 13.574 95.5218 15.43 95.5218 17.663C95.5218 19.896 94.7968 21.752 93.3758 23.173C91.9548 24.594 90.1568 25.319 87.9528 25.319C85.7488 25.319 83.9508 24.594 82.5298 23.173C81.1088 21.752 80.4128 19.896 80.4128 17.663C80.4128 15.43 81.1088 13.574 82.5298 12.153ZM91.1138 14.212C90.3308 13.313 89.2868 12.849 87.9818 12.849C86.6768 12.849 85.6328 13.313 84.8208 14.212C84.0088 15.111 83.6028 16.271 83.6028 17.663C83.6028 19.055 84.0088 20.215 84.8208 21.114C85.6328 22.013 86.6768 22.477 87.9818 22.477C89.2868 22.477 90.3308 22.013 91.1138 21.114C91.9258 20.215 92.3318 19.055 92.3318 17.663C92.3318 16.271 91.9258 15.111 91.1138 14.212ZM106.915 10.326H109.989V25H107.292L107.089 23.028C106.335 24.565 105.001 25.319 103.116 25.319C100.013 25.319 98.4179 23.202 98.4179 19.838V10.326H101.492V19.229C101.492 21.288 102.304 22.332 103.957 22.332C105.697 22.332 106.915 20.882 106.915 18.359V10.326ZM114.225 3.83H117.299V12.153C118.14 10.906 119.822 10.007 121.939 10.007C123.94 10.007 125.593 10.732 126.869 12.211C128.145 13.661 128.783 15.488 128.783 17.663C128.783 19.838 128.145 21.665 126.869 23.144C125.593 24.594 123.969 25.319 121.968 25.319C119.793 25.319 118.198 24.536 117.125 22.941L116.893 25H114.225V3.83ZM121.388 12.936C120.286 12.936 119.329 13.371 118.488 14.241C117.647 15.082 117.241 16.213 117.241 17.634V17.779C117.241 19.2 117.647 20.331 118.459 21.172C119.3 22.013 120.286 22.419 121.417 22.419C123.882 22.419 125.622 20.476 125.622 17.663C125.622 14.879 123.853 12.936 121.388 12.936ZM131.955 3.83H135.029V25H131.955V3.83ZM145.349 10.007C149.38 10.007 152.077 12.675 152.077 17.547V18.736H141.376C141.521 21.085 143.145 22.593 145.436 22.593C147.234 22.593 148.394 21.897 148.945 20.505H151.961C151.033 23.55 148.742 25.319 145.349 25.319C143.232 25.319 141.492 24.623 140.158 23.231C138.853 21.839 138.186 19.983 138.186 17.692C138.186 15.459 138.853 13.603 140.158 12.182C141.463 10.732 143.203 10.007 145.349 10.007ZM145.32 12.704C143.116 12.704 141.608 14.212 141.405 16.329H148.974C148.945 14.125 147.495 12.704 145.32 12.704ZM155.692 4.7H162.826C165.929 4.7 168.423 5.628 170.25 7.484C172.106 9.311 173.034 11.776 173.034 14.85C173.034 17.924 172.106 20.389 170.25 22.245C168.423 24.072 165.929 25 162.826 25H155.692V4.7ZM162.826 6.498H157.606V23.202H162.826C165.349 23.202 167.35 22.448 168.829 20.969C170.337 19.49 171.091 17.431 171.091 14.85C171.091 12.269 170.337 10.239 168.858 8.76C167.379 7.252 165.349 6.498 162.826 6.498ZM176.821 10.442H178.648V25H176.821V10.442ZM177.749 4.41C178.532 4.41 179.17 5.048 179.17 5.831C179.17 6.614 178.532 7.223 177.749 7.223C176.937 7.223 176.328 6.614 176.328 5.831C176.328 5.048 176.937 4.41 177.749 4.41ZM187.999 10.123C191.218 10.123 192.987 12.008 192.987 15.285V25H191.247L191.189 22.883C190.406 24.275 188.695 25.319 186.578 25.319C184.055 25.319 182.46 23.753 182.46 21.433C182.46 19.2 183.765 17.837 186.404 17.286L191.131 16.3V15.343C191.131 12.994 190.087 11.834 187.999 11.834C186.056 11.834 184.693 12.907 184.693 14.966H182.866C182.895 13.574 183.359 12.414 184.287 11.515C185.244 10.587 186.462 10.123 187.999 10.123ZM191.131 19.171V17.953L186.752 18.91C185.157 19.287 184.316 19.925 184.316 21.404C184.316 22.796 185.215 23.608 186.81 23.608C188.202 23.608 189.333 23.086 190.174 22.042C190.812 21.201 191.131 20.244 191.131 19.171ZM212.082 10.123C215.127 10.123 216.809 12.269 216.809 15.604V25H214.982V15.778C214.982 13.255 213.793 11.892 211.792 11.892C209.617 11.892 208.022 13.748 207.993 16.677V25H206.195V15.778C206.195 13.255 204.977 11.892 202.976 11.892C200.772 11.892 199.206 13.806 199.206 16.909V25H197.379V10.442H199.061L199.148 12.646C199.728 11.283 201.323 10.123 203.266 10.123C205.412 10.123 206.862 11.109 207.587 13.081C208.37 11.457 209.965 10.123 212.082 10.123ZM221.978 12.269C223.341 10.848 225.081 10.123 227.227 10.123C229.373 10.123 231.113 10.848 232.447 12.269C233.781 13.69 234.448 15.517 234.448 17.721C234.448 19.925 233.781 21.752 232.447 23.173C231.113 24.594 229.373 25.319 227.227 25.319C225.081 25.319 223.341 24.594 221.978 23.173C220.644 21.752 219.977 19.925 219.977 17.721C219.977 15.517 220.644 13.69 221.978 12.269ZM227.256 11.834C225.632 11.834 224.327 12.385 223.312 13.516C222.326 14.618 221.833 16.01 221.833 17.721C221.833 19.432 222.326 20.824 223.312 21.955C224.327 23.057 225.632 23.608 227.256 23.608C228.851 23.608 230.156 23.057 231.113 21.955C232.099 20.824 232.592 19.432 232.592 17.721C232.592 16.01 232.099 14.618 231.113 13.516C230.156 12.385 228.851 11.834 227.256 11.834ZM243.793 10.123C246.838 10.123 248.549 12.327 248.549 15.604V25H246.722V15.778C246.722 13.255 245.504 11.892 243.503 11.892C241.27 11.892 239.675 13.864 239.675 16.909V25H237.848V10.442H239.53L239.617 12.646C240.197 11.283 241.821 10.123 243.793 10.123ZM263.672 3.83H265.47V25H263.788L263.73 22.535C262.889 24.014 260.975 25.319 258.51 25.319C256.451 25.319 254.798 24.594 253.551 23.173C252.333 21.752 251.724 19.925 251.724 17.721C251.724 15.517 252.333 13.69 253.58 12.269C254.827 10.848 256.48 10.123 258.539 10.123C260.975 10.123 262.889 11.37 263.672 12.878V3.83ZM258.713 11.863C257.176 11.863 255.958 12.414 255.001 13.516C254.044 14.618 253.58 16.01 253.58 17.721C253.58 19.432 254.044 20.853 254.972 21.955C255.9 23.057 257.147 23.608 258.684 23.608C260.047 23.608 261.236 23.115 262.193 22.129C263.179 21.114 263.672 19.78 263.672 18.127V17.518C263.672 15.807 263.179 14.415 262.193 13.4C261.236 12.385 260.076 11.863 258.713 11.863Z" fill="#4E4039"/>
<path d="M66.5547 35.9H67.4257V41.438C67.4257 43.882 66.1517 45.169 63.9157 45.169C61.6927 45.169 60.4187 43.882 60.4187 41.438V35.9H61.2767V41.438C61.2767 43.388 62.1607 44.363 63.9157 44.363C65.6707 44.363 66.5547 43.388 66.5547 41.438V35.9ZM76.5204 35.9H77.5604L74.3234 40.346L77.7294 45H76.7024L73.7644 41.022L70.8394 45H69.7994L73.1924 40.346L69.9554 35.9H71.0084L73.7644 39.657L76.5204 35.9ZM86.385 35.731C87.633 35.731 88.465 36.498 88.465 37.746C88.413 38.344 88.361 38.669 88.01 39.072L87.737 39.371C87.685 39.423 87.555 39.514 87.36 39.657L87.009 39.891C86.97 39.904 86.84 39.995 86.619 40.138L86.593 40.164L88.803 42.634C88.868 42.413 88.92 42.127 88.946 41.776C88.972 41.243 88.907 40.736 88.764 40.268L89.583 40.138C89.739 40.645 89.804 41.204 89.778 41.828C89.752 42.361 89.635 42.868 89.414 43.323L90.935 45H89.83L88.959 44.038C88.322 44.792 87.451 45.169 86.372 45.169C84.591 45.169 83.395 44.246 83.395 42.647C83.395 41.503 84.045 40.827 85.202 40.112L85.358 40.021L85.137 39.774C84.526 39.098 84.227 38.422 84.227 37.746C84.227 36.589 85.072 35.731 86.385 35.731ZM86.385 44.415C87.308 44.415 87.984 44.09 88.426 43.453L85.878 40.606L85.8 40.645C84.76 41.282 84.279 41.763 84.279 42.634C84.279 43.791 85.072 44.415 86.385 44.415ZM85.085 37.746C85.085 38.24 85.332 38.76 85.839 39.319L86.073 39.592L86.151 39.54C86.684 39.215 87.035 38.968 87.191 38.799C87.464 38.513 87.594 38.175 87.594 37.772C87.594 36.992 87.126 36.485 86.398 36.485C85.631 36.485 85.098 36.979 85.085 37.746ZM100.766 35.731C102.781 35.731 104.211 36.758 104.731 38.474H103.769C103.353 37.278 102.326 36.537 100.766 36.537C99.7259 36.537 98.8679 36.914 98.1919 37.655C97.5289 38.396 97.1909 39.319 97.1909 40.45C97.1909 41.581 97.5289 42.517 98.1919 43.258C98.8679 43.999 99.7259 44.363 100.779 44.363C102.716 44.363 103.964 43.349 103.977 41.282H100.961V40.463H104.874V40.983C104.874 42.283 104.51 43.31 103.795 44.051C103.08 44.792 102.066 45.169 100.779 45.169C99.4659 45.169 98.3999 44.727 97.5549 43.83C96.7099 42.933 96.2939 41.802 96.2939 40.45C96.2939 39.098 96.7099 37.98 97.5549 37.083C98.3999 36.186 99.4659 35.731 100.766 35.731ZM107.578 35.9H109.879C110.75 35.9 111.452 36.147 111.959 36.628C112.479 37.109 112.739 37.759 112.739 38.565C112.739 39.8 112.076 40.671 110.932 41.022L113.129 45H112.141L110.048 41.165H108.436V45H107.578V35.9ZM109.879 36.706H108.436V40.372H109.879C111.075 40.372 111.881 39.696 111.881 38.565C111.881 37.421 111.088 36.706 109.879 36.706ZM119.009 37.564L118.84 37.083L118.671 37.564L117.033 41.542H120.647L119.009 37.564ZM118.437 35.9H119.256L122.987 45H122.025L120.946 42.361H116.734L115.681 45H114.719L118.437 35.9ZM125.337 35.9H127.898C128.769 35.9 129.458 36.147 129.978 36.654C130.498 37.148 130.758 37.798 130.758 38.617C130.758 39.41 130.498 40.06 129.978 40.554C129.471 41.035 128.769 41.282 127.898 41.282H126.195V45H125.337V35.9ZM127.898 36.706H126.195V40.476H127.898C129.094 40.476 129.9 39.748 129.9 38.617C129.9 37.46 129.094 36.706 127.898 36.706ZM139.344 35.9H140.202V45H139.344V40.71H134.04V45H133.182V35.9H134.04V39.891H139.344V35.9ZM143.375 35.9H144.233V45H143.375V35.9ZM151.363 35.731C153.378 35.731 154.808 36.758 155.328 38.474H154.366C153.95 37.278 152.923 36.537 151.363 36.537C150.323 36.537 149.465 36.914 148.789 37.655C148.126 38.396 147.788 39.319 147.788 40.45C147.788 41.581 148.126 42.517 148.789 43.258C149.465 43.999 150.323 44.363 151.363 44.363C152.936 44.363 153.963 43.596 154.379 42.4H155.341C154.808 44.168 153.404 45.169 151.363 45.169C150.063 45.169 148.997 44.727 148.152 43.83C147.307 42.933 146.891 41.802 146.891 40.45C146.891 39.098 147.307 37.98 148.152 37.083C148.997 36.186 150.063 35.731 151.363 35.731ZM161.628 35.9H164.826C166.217 35.9 167.335 36.316 168.154 37.148C168.986 37.967 169.402 39.072 169.402 40.45C169.402 41.828 168.986 42.933 168.154 43.765C167.335 44.584 166.217 45 164.826 45H161.628V35.9ZM164.826 36.706H162.486V44.194H164.826C165.957 44.194 166.854 43.856 167.517 43.193C168.193 42.53 168.531 41.607 168.531 40.45C168.531 39.293 168.193 38.383 167.53 37.72C166.867 37.044 165.957 36.706 164.826 36.706ZM172.113 35.9H177.001V36.706H172.971V39.904H176.546V40.71H172.971V44.194H177.001V45H172.113V35.9ZM181.992 35.731C183.539 35.731 184.527 36.628 184.54 38.227H183.669C183.656 37.135 183.006 36.511 181.979 36.511C180.978 36.511 180.38 37.122 180.38 38.123C180.38 38.591 180.51 38.942 180.783 39.176C181.056 39.41 181.563 39.683 182.291 39.982C183.227 40.346 183.89 40.71 184.267 41.087C184.657 41.451 184.852 41.958 184.852 42.595C184.852 43.388 184.605 44.025 184.098 44.48C183.604 44.935 182.954 45.169 182.135 45.169C180.328 45.169 179.236 44.077 179.223 42.374H180.094C180.107 43.661 180.861 44.389 182.148 44.389C183.331 44.389 183.981 43.674 183.981 42.634C183.981 41.789 183.422 41.334 181.901 40.775C181.056 40.437 180.445 40.086 180.068 39.722C179.691 39.358 179.509 38.838 179.509 38.162C179.509 37.473 179.73 36.888 180.159 36.433C180.588 35.965 181.199 35.731 181.992 35.731ZM187.473 35.9H188.331V45H187.473V35.9ZM195.461 35.731C197.476 35.731 198.906 36.758 199.426 38.474H198.464C198.048 37.278 197.021 36.537 195.461 36.537C194.421 36.537 193.563 36.914 192.887 37.655C192.224 38.396 191.886 39.319 191.886 40.45C191.886 41.581 192.224 42.517 192.887 43.258C193.563 43.999 194.421 44.363 195.474 44.363C197.411 44.363 198.659 43.349 198.672 41.282H195.656V40.463H199.569V40.983C199.569 42.283 199.205 43.31 198.49 44.051C197.775 44.792 196.761 45.169 195.474 45.169C194.161 45.169 193.095 44.727 192.25 43.83C191.405 42.933 190.989 41.802 190.989 40.45C190.989 39.098 191.405 37.98 192.25 37.083C193.095 36.186 194.161 35.731 195.461 35.731ZM208.396 35.9H209.254V45H208.422L203.482 37.928L203.131 37.395V45H202.273V35.9H203.092L208.006 42.933L208.396 43.505V35.9ZM218.486 35.731C220.033 35.731 221.021 36.628 221.034 38.227H220.163C220.15 37.135 219.5 36.511 218.473 36.511C217.472 36.511 216.874 37.122 216.874 38.123C216.874 38.591 217.004 38.942 217.277 39.176C217.55 39.41 218.057 39.683 218.785 39.982C219.721 40.346 220.384 40.71 220.761 41.087C221.151 41.451 221.346 41.958 221.346 42.595C221.346 43.388 221.099 44.025 220.592 44.48C220.098 44.935 219.448 45.169 218.629 45.169C216.822 45.169 215.73 44.077 215.717 42.374H216.588C216.601 43.661 217.355 44.389 218.642 44.389C219.825 44.389 220.475 43.674 220.475 42.634C220.475 41.789 219.916 41.334 218.395 40.775C217.55 40.437 216.939 40.086 216.562 39.722C216.185 39.358 216.003 38.838 216.003 38.162C216.003 37.473 216.224 36.888 216.653 36.433C217.082 35.965 217.693 35.731 218.486 35.731ZM223.018 35.9H230.61V36.706H227.243V45H226.385V36.706H223.018V35.9ZM238.859 35.9H239.73V41.438C239.73 43.882 238.456 45.169 236.22 45.169C233.997 45.169 232.723 43.882 232.723 41.438V35.9H233.581V41.438C233.581 43.388 234.465 44.363 236.22 44.363C237.975 44.363 238.859 43.388 238.859 41.438V35.9ZM242.766 35.9H245.964C247.355 35.9 248.473 36.316 249.292 37.148C250.124 37.967 250.54 39.072 250.54 40.45C250.54 41.828 250.124 42.933 249.292 43.765C248.473 44.584 247.355 45 245.964 45H242.766V35.9ZM245.964 36.706H243.624V44.194H245.964C247.095 44.194 247.992 43.856 248.655 43.193C249.331 42.53 249.669 41.607 249.669 40.45C249.669 39.293 249.331 38.383 248.668 37.72C248.005 37.044 247.095 36.706 245.964 36.706ZM253.252 35.9H254.11V45H253.252V35.9ZM265.985 40.437C265.985 41.789 265.556 42.92 264.685 43.817C263.814 44.714 262.722 45.169 261.383 45.169C260.044 45.169 258.939 44.714 258.068 43.817C257.197 42.92 256.768 41.789 256.768 40.437C256.768 39.098 257.197 37.98 258.068 37.083C258.939 36.186 260.044 35.731 261.383 35.731C262.722 35.731 263.814 36.186 264.685 37.083C265.556 37.98 265.985 39.098 265.985 40.437ZM261.383 36.537C260.304 36.537 259.407 36.914 258.705 37.655C258.016 38.396 257.665 39.319 257.665 40.437C257.665 41.568 258.016 42.504 258.705 43.245C259.407 43.986 260.304 44.363 261.383 44.363C262.462 44.363 263.346 43.986 264.035 43.245C264.737 42.504 265.088 41.568 265.088 40.437C265.088 39.319 264.737 38.396 264.035 37.655C263.346 36.914 262.462 36.537 261.383 36.537Z" fill="#4E4039"/>
<rect x="22.1098" y="15.0913" width="19.7736" height="19.7736" transform="rotate(-45 22.1098 15.0913)" stroke="#4E4039" stroke-width="1.51862"/>
<rect x="1.92617" y="15.0913" width="19.7736" height="19.7736" transform="rotate(-45 1.92617 15.0913)" fill="white" stroke="#4E4039" stroke-width="1.51862"/>
<path d="M38.933 15.5453C39.2283 15.2475 39.2263 14.7668 38.9285 14.4715L34.0764 9.65929C33.7786 9.36399 33.2979 9.36597 33.0026 9.66373C32.7073 9.96148 32.7093 10.4422 33.007 10.7375L37.32 15.015L33.0425 19.3281C32.7472 19.6258 32.7492 20.1066 33.047 20.4019C33.3447 20.6972 33.8255 20.6952 34.1208 20.3974L38.933 15.5453ZM16.3972 15.8609L38.397 15.7699L38.3907 14.2513L16.3909 14.3423L16.3972 15.8609Z" fill="#4E4039"/>
</g>
<defs>
<clipPath id="clip0_17_2">
<rect width="286" height="47" fill="white"/>
</clipPath>
</defs>
</svg>
